<svg width="590" height="502" viewBox="0 0 590 502" fill="none" xmlns="http://www.w3.org/2000/svg">
<path opacity="0.7" d="M90.418 123.868L303.879 459.463L518.193 123.868H90.418Z" stroke="#2B2B39" stroke-linecap="round" stroke-linejoin="round" stroke-dasharray="3 3"/>
<circle cx="487.635" cy="130.633" r="96.4193" fill="white"/>
<circle cx="487.635" cy="130.633" r="95.4193" stroke="#FFAF2E" stroke-opacity="0.6" stroke-width="2"/>
<mask id="mask0_141_32" style="mask-type:alpha" maskUnits="userSpaceOnUse" x="312" y="0" width="278" height="272">
<path d="M584.055 130.633C584.055 77.3821 540.887 0.000366211 487.636 0.000366211C438.163 0.000366211 397.393 66.7903 391.857 118.969C342.732 112.749 276.914 88.6439 336.787 133.743C360.538 151.634 375.155 177.547 403.671 178.065C420.229 207.313 451.627 227.052 487.636 227.052C514.135 227.052 538.137 216.362 555.566 199.06L550.991 242.235C550.991 325.435 606.847 210.257 584.055 130.633Z" fill="#C4C4C4"/>
</mask>
<g mask="url(#mask0_141_32)">
<path d="M483.097 78.5016C457.151 99.1985 459.796 143.2 458.229 167.151C457.128 183.906 453.68 207.918 451.49 221.659L500.103 228.817V144.576C500.103 116.496 502.057 81.9857 509.717 74.5525C504.382 73.9614 499.67 74.1129 496.441 74.5525C493.88 74.5319 490.673 74.9637 487.163 76.3844C485.619 77.3001 484.484 77.7102 483.097 78.5016Z" fill="white"/>
<path opacity="0.5" d="M483.097 78.5011C457.151 99.198 459.796 143.2 458.229 167.15C457.128 183.905 453.68 207.917 451.49 221.658C469.977 228.461 478.079 230.082 500.103 228.816V144.576C500.103 122.869 501.271 97.3189 505.342 83.4059C500.962 90.4273 494.891 124.316 495.817 144.576C496.744 164.836 496.126 204.304 490.258 215.295C484.383 226.286 454.107 218.042 456.887 209.494C459.667 200.945 459.667 173.163 462.138 141.107C464.115 115.462 476.936 88.6842 483.097 78.5011Z" fill="#FFB83B"/>
<path d="M490.26 215.295C484.385 226.286 454.109 218.043 456.889 209.495C463.993 220.485 480.987 217.127 483.767 212.853C486.547 208.579 490.877 197.893 490.877 179.881C490.877 165.47 494.584 137.851 496.437 125.843C495.831 132.552 495.567 139.068 495.819 144.576C496.746 164.836 496.128 204.305 490.26 215.295Z" fill="#FFF9EF"/>
<path d="M462.137 141.108C463.687 121.07 471.847 100.339 478.283 87.3749C474.65 95.211 467.456 115.463 467.703 133.781C467.95 152.098 462.424 174.996 459.627 184.155C460.284 172.127 460.902 157.153 462.137 141.108Z" fill="#FFF9EF"/>
<path d="M446.689 254.984L435.873 253.458C437.524 242.158 448.975 186.963 453.721 150.633C454.754 142.707 455.827 134.415 456.916 125.856C461.123 92.7065 475.685 82.933 487.159 76.3844C461.213 97.0813 459.792 143.2 458.225 167.151C457.124 183.906 453.676 207.917 451.486 221.659C451.171 223.631 446.942 253.487 446.689 254.984Z" fill="#FFAF2E"/>
<path d="M453.721 150.633C454.754 142.707 455.827 134.415 456.916 125.856C456.596 136.232 455.827 153.281 453.721 170.721C449.761 203.525 445.454 233.308 435.873 253.457C437.524 242.158 448.975 186.962 453.721 150.633Z" fill="#F3A00D"/>
<path d="M550.502 254.068C545.251 231.171 537.523 141.108 537.523 141.108C537.523 141.108 543.752 109.327 533.508 93.7864C526.96 83.8464 509.718 74.5524 509.718 74.5524C502.058 81.9856 500.103 116.496 500.103 144.576V228.816V258.037C513.425 260.785 535.67 262.006 550.502 254.068Z" fill="#FFAF2E"/>
<path d="M503.995 88.9015C501.007 103.407 500.103 125.479 500.103 144.576V216.517C501.401 205.933 503.72 178.171 502.614 151.793C501.507 125.415 503.074 98.8742 503.995 88.9015Z" fill="#F9A319"/>
<path d="M550.502 254.068C545.251 231.171 537.523 141.108 537.523 141.108C537.523 141.108 543.752 109.326 533.508 93.7863C533.508 110.272 525.477 132.559 530.11 154.846C536.344 184.817 541.539 212.242 535.67 233.002C530.975 249.611 509.999 256.612 500.103 258.037C513.425 260.784 535.67 262.006 550.502 254.068Z" fill="#F9A319"/>
<path d="M584.793 164.311C586.646 145.382 568.113 117.6 547.103 96.8395C537.758 87.606 518.68 76.6898 509.716 74.5526L537.522 141.108C537.522 141.108 546.159 150.633 557.15 167.151C560.553 159.718 574.908 154.846 584.793 164.311Z" fill="#FFAF2E"/>
<path d="M584.794 164.31C586.647 145.382 568.108 117.599 547.104 96.8392C542.224 92.0188 534.692 86.7394 527.33 82.49C529.7 86.5607 534.805 95.8625 536.287 100.503C538.141 106.304 577.998 129.491 574.6 159.265C578.122 159.768 581.677 161.327 584.794 164.31Z" fill="#F9A319"/>
<path d="M553.844 159.262C554.428 153.498 559.92 150.136 563.812 149.175C572.562 147.014 581.307 149.656 585.681 156.14C589.5 161.795 585.199 170.07 581.307 173.192C582.037 162.384 577.909 158.542 568.912 159.983C559.92 161.424 557.247 166.948 556.764 171.751C554.574 170.07 553.114 166.467 553.844 159.262Z" fill="#F9A319"/>
<path d="M568.911 159.983C559.919 161.424 557.246 166.948 556.757 171.751C557.572 181.758 559.043 205.279 558.459 219.305C557.734 236.837 556.757 242.841 553.601 250.526C550.439 258.212 554.618 266.195 560.694 264.754C566.771 263.312 571.73 256.29 570.275 250.526C568.815 244.763 570.275 238.998 572.701 234.915C575.133 230.832 581.305 195.768 581.305 173.193C582.035 162.385 577.902 158.542 568.911 159.983Z" fill="#FFD0B7"/>
<path d="M456.919 125.856C461.126 92.7065 475.688 82.933 487.162 76.3844C477.57 81.4912 455.942 87.3749 440.166 115.12C426.766 138.685 416.584 144.891 412.4 145.992C417.455 150.672 426.21 164.745 425.373 173.774C430.815 169.81 446.411 156.506 453.723 150.633C454.757 142.707 455.83 134.415 456.919 125.856Z" fill="#FFAF2E"/>
<path d="M453.722 150.633C454.755 142.707 455.828 134.415 456.917 125.856C453.935 140.83 442.675 149.656 436.497 151.793C431.549 153.502 426.573 162.886 424.709 167.363C425.287 169.638 425.551 171.824 425.371 173.775C430.813 169.81 446.409 156.506 453.722 150.633Z" fill="#F9A319"/>
<path d="M420.629 160.666C417.17 149.978 412.093 146.654 409.925 146.298C410.65 145.585 412.57 143.939 414.951 143.298C417.922 142.496 426.307 143.298 430.093 149.444C433.299 154.648 436.854 163.071 430.093 171.355C424.684 177.981 413.059 177.322 407.92 176.164C413.598 175.452 423.746 170.286 420.629 160.666Z" fill="#F9A319"/>
<path d="M407.919 176.164C413.597 175.452 423.745 170.286 420.628 160.666C418.14 152.98 414.871 147.519 409.924 146.297C408.755 146.729 406.459 147.68 397.372 143.832C386.016 139.023 348.97 122.188 346.266 119.784C343.561 117.379 337.613 109.096 329.23 109.363C320.848 109.63 323.822 124.861 333.827 127.533C343.832 130.205 352.215 137.42 357.082 142.764C361.949 148.108 388.178 174.027 407.919 176.164Z" fill="#FFD0B7"/>
<path d="M486.902 76.3959V59.8219L509.715 48.9073V74.5523C499.544 93.2869 485.976 88.5186 486.902 76.3959Z" fill="#FFD0B7"/>
<path d="M489.425 58.6159L509.716 48.9073V74.5523C509.699 74.5895 509.677 74.6261 509.66 74.6633C508.638 76.5291 507.588 78.1596 506.515 79.5714C502.741 73.9557 492.761 65.2417 486.903 60.8896V60.0289L489.425 58.6159Z" fill="url(#paint0_linear_141_32)"/>
<path d="M475.58 18.0429C475.58 27.7704 480.516 28.9536 484.15 28.4402L506.367 52.3154C506.626 52.8288 509.114 54.9454 509.114 59.9401C509.114 65.0053 513.146 54.4931 516.134 52.3154C522.323 47.8074 526.529 47.6737 528.489 40.2388C530.174 33.8567 527.798 29.3387 525.85 28.4402C524.682 27.9269 523.435 26.8231 521.565 26.5151C519.694 26.2065 519.223 23.0493 519.223 21.5087C519.093 20.3538 518.588 18.7472 515.606 16.8875C513.753 15.7326 508.962 15.2187 507.142 16.8875C505.974 17.5296 503.323 18.1972 502.077 15.7326C500.83 13.268 498.179 14.192 497.011 14.9618C493.585 16.1938 485.638 12.5749 482.549 3.11047C478.843 7.99529 475.58 11.3534 475.58 18.0429Z" fill="#2B2B39"/>
<path d="M525.851 28.4404C524.683 27.9265 523.436 26.8227 521.566 26.5146C531.203 33.6016 523.436 44.9562 517.258 48.0085C512.316 50.4503 509.772 56.9801 509.115 59.9403C509.115 65.0049 513.147 54.4927 516.135 52.315C522.324 47.807 526.53 47.6733 528.49 40.239C530.175 33.8569 527.8 29.3383 525.851 28.4404Z" fill="#13131C"/>
<path d="M497.013 14.9618C493.587 16.1938 485.641 12.5743 482.552 3.11047C482.608 8.80332 485.416 19.76 496.199 18.0429C497.884 17.4852 499.849 16.3753 502.096 18.5951C504.342 20.815 510.026 15.7321 515.608 16.8875C513.755 15.7321 508.964 15.2182 507.145 16.8875C505.977 17.529 503.326 18.1967 502.079 15.7321C500.832 13.2675 498.187 14.1915 497.013 14.9618Z" fill="#13131C"/>
<path d="M495.458 60.7872C504.5 58.0146 508.055 51.6736 508.707 48.8499C508.971 47.6945 509.616 44.4856 509.487 43.0738C508.549 40.3012 505.719 44.2287 504.421 46.5396C502.686 49.6202 502.372 38.8378 504.421 36.1423C507.224 32.4451 502.86 31.4661 500.911 30.3662C500.002 29.8523 497.486 28.9799 494.678 29.5959C491.869 30.2119 490.392 28.5687 489.999 27.6702C488.96 26.0019 486.259 23.6655 483.765 27.6702C477.84 36.6046 478.958 48.3365 480.261 53.0859C481.558 56.8081 486.416 63.5598 495.458 60.7872Z" fill="#FFD0B7"/>
</g>
<g filter="url(#filter0_d_141_32)">
<circle cx="101.659" cy="124.022" r="97.659" fill="white"/>
<circle cx="101.659" cy="124.022" r="96.659" stroke="#217BF4" stroke-opacity="0.6" stroke-width="2"/>
</g>
<mask id="mask1_141_32" style="mask-type:alpha" maskUnits="userSpaceOnUse" x="4" y="0" width="220" height="246">
<path d="M4 124.45C4 70.5139 47.7234 0.0868868 101.659 0.0868868C231.668 -3.57533 228.056 109.445 220.681 166.412H189.868C174.172 199.348 140.574 222.109 101.659 222.109C88.7082 222.109 76.3462 219.588 65.0369 215.01C64.269 214.699 63.506 214.379 62.748 214.049C60.2048 220.296 55.271 234.774 55.8813 242.708C43.674 252.627 13.7536 233.4 16.2006 171.753C8.4267 157.739 4 141.611 4 124.45Z" fill="#C4C4C4"/>
</mask>
<g mask="url(#mask1_141_32)">
<path d="M213.623 144.067C207.649 145.878 200.24 148.437 194.742 147.101C190.335 146.031 190.666 144.639 190.168 141.719C191.565 139.35 197.469 134.795 208.899 132.471C223.185 129.567 224.128 140.881 213.623 144.067Z" fill="#FEBE9D"/>
<path d="M148.666 101.386C146.906 97.1122 142.068 96.4001 139.869 96.5781C123.845 102.989 133.585 149.198 137.355 155.342C141.125 161.485 145.524 163.889 149.923 165.759C154.321 167.628 163.119 166.56 165.318 165.225C167.518 163.889 168.146 162.553 170.659 162.286C173.173 162.019 177.258 161.218 178.828 159.615C180.399 158.013 181.656 156.41 185.427 156.41C189.197 156.41 192.339 153.739 193.595 152.137C194.852 150.534 195.795 150.267 197.994 149.732C200.194 149.198 202.393 149.198 203.021 146.527C203.65 143.856 203.964 138.514 203.65 135.843C203.335 133.172 203.335 133.172 201.764 133.439C200.194 133.706 196.109 135.843 194.852 135.843C193.595 135.843 191.396 135.576 189.197 136.377C186.997 137.178 179.771 140.117 175.058 141.452C170.345 142.788 163.433 143.055 164.061 141.185C164.69 139.316 166.889 133.973 162.49 133.973C158.092 133.973 158.092 131.035 156.207 124.892C154.321 118.748 150.865 106.728 148.666 101.386Z" fill="#217BF4"/>
<path d="M195.168 147.597C196.529 147.508 199.629 146.956 201.137 145.46M196.424 138.783C197.367 137.981 199.818 136.378 202.08 136.378L196.424 138.783ZM198.624 140.118L201.137 139.05L198.624 140.118ZM195.482 143.858C196.948 143.679 200.257 143.003 201.766 141.721L195.482 143.858Z" stroke="#2068D9" stroke-width="1.07894"/>
<path d="M196.02 150.286C195.446 148.156 194.874 144.831 195.481 142.254C194.852 144.123 193.03 148.504 190.768 151.068C187.94 154.273 184.484 154.006 183.856 151.335C183.227 148.664 179.457 150.267 178.2 153.472C176.944 156.677 174.116 160.684 169.403 160.951C164.988 161.201 162.779 162.154 161.484 162.713C161.397 162.751 161.313 162.787 161.234 162.821C159.977 163.355 160.291 161.218 161.548 159.883C162.805 158.547 164.376 155.075 164.061 153.205C162.491 156.143 159.349 160.15 154.322 161.485C149.294 162.821 146.467 159.616 150.237 156.677C154.007 153.739 156.835 151.068 157.777 148.664C158.134 147.755 157.637 148.068 156.644 148.693C155.01 149.721 152.031 151.596 149.294 150.267C144.896 148.13 145.524 141.987 148.98 140.918C150.084 140.577 151.734 140.481 153.509 140.377C157.289 140.158 161.635 139.905 162.491 137.179C160.606 138.247 149.609 139.85 149.294 133.172C148.98 126.494 148.352 121.954 146.781 118.214C146.259 116.972 146.014 115.347 145.76 113.652C145.247 110.244 144.691 106.553 141.754 105.126C140.915 104.719 137.447 104.874 132.709 105.696C127.829 121.33 134.412 150.546 137.355 155.342C141.125 161.486 145.524 163.89 149.923 165.759C154.321 167.629 163.119 166.561 165.318 165.225C166.037 164.789 166.589 164.352 167.092 163.953C168.13 163.131 168.968 162.467 170.659 162.287C173.173 162.02 177.258 161.218 178.828 159.616C178.941 159.501 179.052 159.386 179.163 159.271C180.593 157.791 181.927 156.411 185.427 156.411C189.197 156.411 192.339 153.74 193.595 152.137C194.396 151.116 195.069 150.637 196.02 150.286Z" fill="#1771EA"/>
<path d="M140.4 159.417C141.962 157.682 144.614 155.243 147.095 154.54C150.866 153.472 148.98 152.937 145.838 154.006C142.697 155.074 142.068 154.272 141.754 150.8C141.44 147.328 142.697 141.184 144.582 136.911C146.467 132.637 148.98 119.282 143.639 114.207C141.182 111.873 136 112.138 131.149 114.535C129.936 130.448 134.906 151.35 137.355 155.341C138.332 156.932 139.35 158.272 140.4 159.417Z" fill="#2068D9"/>
<path d="M192.967 147.864C195.732 144.659 195.376 138.871 194.852 136.378C195.69 138.516 196.863 143.537 194.852 146.529C192.339 150.268 192.339 148.665 192.967 147.864Z" fill="#3881F2"/>
<path d="M117.249 225.056C126.548 221.424 138.928 223.186 143.955 224.522C144.583 224.681 145.212 224.522 146.468 220.783C147.725 217.043 146.783 207.695 146.468 206.893C146.154 206.092 146.154 205.558 146.468 204.222C148.039 195.408 142.07 174.307 139.556 162.554C137.042 150.801 140.499 139.85 143.955 131.837C147.411 123.824 144.583 113.407 143.64 102.723C142.698 92.0384 132.016 91.2371 117.563 88.2988C103.11 85.3608 84.5724 85.3608 76.4034 102.99C68.2343 120.619 75.7749 143.59 76.4034 156.678C77.0315 169.766 70.748 180.984 66.6632 192.47C62.5789 203.955 63.5215 212.503 62.2645 219.981C61.259 225.965 63.3117 228.529 64.4641 229.063C64.5688 230.399 64.7781 233.978 64.7781 237.61C64.7781 242.151 66.6633 244.555 71.3761 244.288C76.0889 244.021 83.6299 241.35 90.2278 237.076C96.8258 232.803 105.623 229.597 117.249 225.056Z" fill="#217BF4"/>
<path d="M117.563 174.574C109.017 180.984 98.5018 179.737 94.3127 178.313C94.3127 179.47 96.3237 182.373 104.367 184.724C114.421 187.662 121.333 180.984 124.161 175.642C126.423 171.368 131.387 165.314 133.587 162.821C131.806 164.067 126.109 168.163 117.563 174.574Z" fill="#3881F2"/>
<path d="M143.955 224.522C138.928 223.186 126.548 221.423 117.248 225.056C115.972 225.554 114.73 226.037 113.521 226.506C103.718 230.313 96.1018 233.272 90.2278 237.076C83.6299 241.349 76.0889 244.021 71.3761 244.288C66.6633 244.555 64.7781 242.151 64.7781 237.61C64.7781 233.978 64.5688 230.398 64.4641 229.063C63.3117 228.528 61.259 225.964 62.2645 219.981C62.6677 217.583 62.8444 215.075 63.0335 212.396C63.4335 206.719 63.8885 200.273 66.6632 192.469C67.6082 189.812 68.671 187.169 69.7385 184.514C73.2855 175.693 76.8862 166.737 76.4034 156.677C76.2366 153.208 75.5846 149.045 74.8677 144.47C72.8811 131.787 70.3997 115.946 76.4034 102.989C76.5065 102.767 76.6112 102.547 76.7174 102.331C89.0683 92.49 101.317 88.2998 111.585 87.3135C113.628 87.5658 115.632 87.9062 117.563 88.2986C119.109 88.6131 120.613 88.9033 122.067 89.1835C127.694 90.2685 132.564 91.2079 136.252 92.8566C136.884 93.4648 137.361 94.0878 137.671 94.7083C142.07 103.523 132.958 113.673 125.732 118.748C118.505 123.822 120.076 125.959 128.245 123.822C135.486 121.928 134.334 122.552 125.446 127.368C124.307 127.986 123.04 128.672 121.647 129.431C109.394 136.109 123.218 133.437 133.272 131.3C143.326 129.163 141.441 134.238 139.242 136.375C138.321 137.27 137.289 137.79 136.379 138.249C135.115 138.887 134.083 139.407 133.901 140.649C133.586 142.786 131.387 145.189 128.559 146.258C128.336 146.342 128.109 146.427 127.878 146.512C125.196 147.508 122.127 148.648 120.39 151.6C118.505 154.805 113.792 155.339 108.137 155.072C102.481 154.804 94.9407 156.941 101.853 162.55C108.765 168.16 118.505 164.153 123.532 162.016C111.907 174.303 95.2547 165.221 92.1129 160.948C88.9712 156.674 87.4001 155.339 83.3154 156.407C79.2311 157.475 77.9745 162.549 81.7447 163.618C83.4153 164.091 85.1476 163.883 86.559 163.713C88.3327 163.5 89.5993 163.347 89.5993 164.686C89.5993 166.721 84.6469 170.287 80.2676 173.44C79.4731 174.012 78.6977 174.57 77.9744 175.103C73.2612 178.576 78.6026 181.514 82.0588 182.582C85.515 183.651 84.5724 184.986 78.917 190.329C71.062 198.076 86.1435 205.287 99.9679 197.007C111.028 190.382 120.704 189.795 124.161 190.329C120.181 191.309 110.525 194.817 103.738 201.013C98.0179 206.236 90.4408 207.695 83.7035 208.991C80.4491 209.618 77.3905 210.206 74.8323 211.163C66.9773 214.101 71.062 219.978 77.66 220.245C81.1795 220.387 87.3806 217.034 94.4992 213.185C100.727 209.817 107.656 206.07 114.106 203.952C127.931 199.411 137.357 202.883 142.384 204.754C134.215 204.22 111.279 210.897 99.3394 217.575C93.5646 220.804 89.2598 222.035 85.5011 223.109C81.4884 224.256 78.0975 225.225 74.2038 228.259C66.6633 234.135 76.7174 238.142 83.9439 237.074C87.1724 236.596 91.7173 233.987 96.907 231.007C103.334 227.317 110.75 223.059 117.877 221.581C127.41 219.605 139.471 221.743 145.453 223.343C144.818 224.59 144.386 224.631 143.955 224.522Z" fill="#1771EA"/>
<path d="M75.9969 152.197C77.2969 150.624 79.1698 148.235 80.1736 146.528C81.7443 143.857 82.6869 142.789 84.8864 144.659C87.0856 146.528 90.5418 146.262 92.427 144.125C92.39 144.272 92.3529 144.417 92.3163 144.561C91.4219 148.069 90.8014 150.504 97.1398 149.734C99.4576 149.452 102.784 149.83 106.001 150.196C111.942 150.87 117.512 151.503 115.677 147.864C112.849 142.255 110.964 128.633 116.62 123.825C121.144 119.978 124.998 114.565 126.36 112.339C128.873 107.264 128.622 97.3816 107.508 98.4499C99.1272 98.8738 89.9858 97.1161 81.4322 95.4176C79.5005 97.4747 77.8001 99.974 76.4029 102.989C70.3993 115.945 72.8811 131.787 74.8677 144.47C75.2976 147.214 75.7044 149.81 75.9969 152.197Z" fill="#2068D9"/>
<path d="M131.701 214.638C138.237 214.851 139.661 210.809 139.556 208.762C139.556 207.159 141.441 207.159 140.499 214.104C139.556 221.049 128.245 217.309 118.505 218.11C108.765 218.912 94.9408 225.056 91.4846 226.925C108.451 214.371 123.532 214.371 131.701 214.638Z" fill="#3881F2"/>
<path d="M138.925 205.824C139.658 208.584 140.999 215.546 140.496 221.316M69.4885 230.665C69.4885 232.623 69.6772 237.342 70.4311 240.548L69.4885 230.665ZM77.0295 227.192C77.7623 229.596 79.1657 234.938 78.9146 237.075L77.0295 227.192ZM82.0563 224.521C82.5802 226.391 83.6274 231.573 83.6274 237.342L82.0563 224.521ZM88.3403 225.055V232V225.055ZM93.3671 221.316C93.9956 222.919 95.064 226.872 94.3097 229.863L93.3671 221.316ZM98.3944 218.378C98.9182 220.159 99.9655 224.414 99.9655 227.192L98.3944 218.378ZM104.678 216.775V223.72V216.775ZM110.648 213.303C111.172 215.618 111.905 221.102 110.648 224.521V213.303ZM115.047 211.967C115.78 213.481 117.12 217.309 116.618 220.514L115.047 211.967ZM122.587 210.632C122.587 212.947 122.587 217.79 122.587 218.645V210.632ZM126.672 208.495C126.986 210.632 127.614 215.814 127.614 219.446L126.672 208.495ZM135.155 211.7C135.26 213.837 135.281 218.591 134.527 220.514L135.155 211.7Z" stroke="#2068D9" stroke-width="1.07894"/>
<path d="M72.6331 225.858C93.1601 216.51 136.54 198.721 144.583 205.559" stroke="#3881F2" stroke-width="1.07894"/>
<path d="M62.2645 219.981C61.259 225.964 63.3117 228.528 64.4641 229.062C64.5138 229.699 64.5879 230.847 64.6511 232.267C67.5214 229.952 73.8897 225.002 76.4034 223.72C71.6905 225.056 65.4667 227.727 64.6511 221.85C63.8356 215.974 66.9773 209.831 68.8624 206.625C70.748 203.42 73.0025 193.804 70.6186 182.319C69.2645 185.715 67.8681 189.081 66.6632 192.469C62.5789 203.954 63.5215 212.502 62.2645 219.981Z" fill="#2068D9"/>
<path d="M39.3214 233.414C39.7508 227.186 40.8431 219.612 44.0457 214.947C46.6123 211.208 47.7957 212.012 50.7022 212.585C52.4202 214.732 55.3836 221.904 53.4937 233.414C51.1317 247.801 38.5663 244.365 39.3214 233.414Z" fill="#FEBE9D"/>
<path d="M37.7565 224.522C38.2592 223.454 38.5944 221.94 38.6991 221.317C39.6416 214.372 38.6991 207.695 38.6991 196.209C38.6991 184.724 41.5272 172.704 44.0404 168.43C46.554 164.157 45.9255 160.417 47.1826 158.281C48.4392 156.144 52.2095 153.74 50.9528 146.528C49.6958 139.316 54.0946 138.515 54.409 129.433C54.7231 120.352 56.6082 108.866 62.5781 100.853C68.5475 92.8396 90.541 87.4974 92.7406 102.723C94.9398 117.947 86.7708 128.097 83.3145 134.775C79.8587 141.453 75.46 155.876 74.8314 159.616C74.2029 163.355 71.3752 174.04 71.3752 178.58C71.3752 183.121 70.1186 191.401 68.2335 198.613C66.3483 205.825 62.2636 214.639 61.007 215.44C59.7504 216.242 59.1219 216.776 59.1219 218.112C59.1219 219.447 58.4934 223.988 58.1793 225.591C57.8648 227.193 57.5508 227.727 56.6082 227.193C55.6656 226.659 54.0946 226.659 51.2669 226.659C48.4392 226.659 43.7263 227.193 40.8986 226.926C38.0709 226.659 37.1284 225.858 37.7565 224.522Z" fill="#217BF4"/>
<path d="M50.0115 217.311C43.9791 218.594 40.7952 217.489 39.9573 216.777C41.7377 217.311 45.9693 217.745 49.3829 216.777C52.2106 215.975 56.1907 216.065 57.552 216.51C56.086 216.51 52.5251 216.67 50.0115 217.311Z" fill="#3881F2"/>
<path d="M54.4103 217.844C54.0962 218.912 53.7192 221.316 54.7247 222.385C55.7302 223.453 54.9341 224.433 54.4103 224.789M43.4135 220.248C43.6229 221.049 43.7905 223.079 42.7854 224.789L43.4135 220.248ZM47.8123 218.378L47.4982 224.254L47.8123 218.378Z" stroke="#2068D9" stroke-width="1.07894"/>
<path d="M54.4274 226.711C55.245 225.273 56.176 223.043 55.981 221.049C55.6665 217.844 51.2678 216.776 48.7545 217.31C51.8963 215.975 58.8087 213.037 60.6938 206.359C62.579 199.682 61.9505 195.675 55.981 195.141C54.724 195.141 53.4674 194.874 57.8661 191.668C62.2645 188.463 69.1769 182.32 62.579 178.58C55.981 174.841 51.5822 171.903 50.6397 167.896C53.7814 170.033 57.5517 172.437 59.1228 172.704C60.4817 172.935 60.4299 172.766 59.7815 170.643C59.68 170.311 59.5642 169.931 59.4368 169.499C58.4942 166.293 56.2951 158.28 56.2951 155.876C57.2376 158.814 58.8087 163.355 62.893 165.225C66.9777 167.095 68.2344 162.019 67.6059 158.547C66.9777 155.075 66.6633 152.404 70.748 149.466C74.8323 146.528 81.4303 136.11 76.7175 131.57C72.0046 127.029 63.5215 118.749 63.8356 112.338C64.08 107.354 63.5645 105.761 61.2559 102.788C61.6726 102.124 62.1133 101.478 62.579 100.853C66.8452 95.1259 79.2952 90.7638 86.8556 94.2972C87.5625 94.7235 88.2627 95.1558 88.9553 95.5936C90.891 97.1436 92.2702 99.461 92.7415 102.723C94.5725 115.398 89.2168 124.556 85.3773 131.121C84.6051 132.441 83.8942 133.657 83.3154 134.775C79.8596 141.453 75.4608 155.876 74.8323 159.616C74.6381 160.773 74.2325 162.596 73.7656 164.697C72.7243 169.381 71.3761 175.445 71.3761 178.58C71.3761 183.121 70.1195 191.401 68.2344 198.613C66.3492 205.825 62.2645 214.639 61.0079 215.44C59.7513 216.242 59.1228 216.776 59.1228 218.112C59.1228 219.447 58.4943 223.988 58.1802 225.591C57.8661 227.193 57.5517 227.727 56.6091 227.193C56.0992 226.904 55.405 226.772 54.4274 226.711Z" fill="#1771EA"/>
<path d="M78.0865 148.076C76.4414 153.068 75.1517 157.717 74.8329 159.615C74.6382 160.772 74.233 162.595 73.7661 164.696C72.7248 169.38 71.3767 175.444 71.3767 178.579C71.3767 179.997 71.2545 181.778 71.0284 183.778C69.363 180.512 66.6865 176.916 63.2076 176.177C57.7684 175.02 61.0395 175.065 63.4433 175.098C63.8166 175.103 64.1689 175.108 64.4646 175.108C66.6638 175.108 67.6064 174.039 65.0927 172.703C63.0822 171.635 60.0659 165.847 58.8088 163.087C60.1705 165.847 64.1502 171.367 69.1775 171.367C70.7481 171.367 72.0052 170.032 71.0626 167.361C70.2251 164.988 72.8602 154.812 78.0865 148.076Z" fill="#2068D9"/>
<path d="M94.676 84.0802L96.8609 71.6569L112.427 74.8977C112.063 76.5182 112.099 81.5415 112.973 87.5913C113.847 93.6408 116.432 96.8637 117.889 97.8541L94.676 84.0802Z" fill="#FEBE9D"/>
<path d="M96.9957 71.6566L112.245 74.8883C111.978 76.0992 111.931 79.2143 112.284 83.2377C101.4 81.9448 97.5566 74.9783 96.9957 71.6566Z" fill="#F2AD8A"/>
<path d="M88.331 125.912C87.759 122.189 90.334 121.391 92.6227 120.327C94.0198 119.678 95.737 118.83 96.342 117.18C100.359 118.753 104.375 119.149 110.648 118.341C110.934 122.105 111.563 130.805 111.792 135.485C112.078 141.336 114.081 150.643 107.5 147.452C100.92 144.261 98.9174 143.995 95.77 144.793C92.6227 145.591 90.334 144.793 90.0478 139.74C89.7616 134.687 88.9034 126.975 88.331 125.912Z" fill="#8CB9FF"/>
<path d="M95.219 144.941C94.3433 143.063 93.0206 138.827 93.4402 133.911C94.0078 127.254 95.711 121.929 97.6981 126.988C99.2874 131.035 99.6851 135.774 99.6851 137.638C100.821 137.017 103.148 134.39 103.375 128.851C103.659 121.928 103.943 122.194 104.795 126.188C105.646 130.182 105.93 130.715 106.782 126.188C106.896 125.584 106.989 125.036 107.074 124.54C107.613 121.385 107.797 120.302 110.582 119.826C110.542 119.275 110.505 118.776 110.472 118.342C104.249 119.151 100.264 118.755 96.2786 117.18C95.6784 118.832 93.9747 119.681 92.5884 120.331C92.3993 120.42 92.2078 120.507 92.0168 120.594C89.9135 121.55 87.8098 122.506 88.3305 125.923C88.8981 126.988 89.7495 134.71 90.0337 139.769C90.3024 144.558 92.3519 145.529 95.219 144.941Z" fill="#7EAEFA"/>
<path opacity="0.5" d="M88.889 128.346C89.9661 126.085 91.8513 122.972 93.7364 122.444C96.5816 121.648 97.1508 121.117 98.0042 120.321C98.8576 119.524 99.7114 120.055 99.9956 121.117C100.28 122.179 101.134 121.117 101.987 120.056C102.841 118.994 104.548 119.79 104.833 120.587C104.934 120.871 105.29 120.681 105.9 120.356C106.847 119.851 108.408 119.02 110.582 119.131C110.561 118.848 110.541 118.583 110.523 118.339C104.285 119.145 100.291 118.75 96.297 117.18C95.6952 118.827 93.988 119.673 92.5984 120.322C92.4089 120.41 92.2171 120.497 92.0256 120.583C89.9172 121.536 87.8091 122.489 88.3306 125.896C88.4993 126.211 88.6928 127.108 88.889 128.346Z" fill="#70A2F2"/>
<g filter="url(#filter1_d_141_32)">
<path d="M109.066 78.957C98.6979 77.6741 90.4055 68.7703 87.6478 64.6716C82.1329 66.0087 81.0299 65.2054 80.7541 61.463C80.4782 57.7206 87.6478 55.8494 89.0266 49.7012C90.4055 43.553 95.0928 32.0591 108.329 26.7126C121.565 21.3665 132.87 38.7419 133.146 44.0884C133.422 49.4345 132.598 62.1552 129.286 69.4832C125.779 77.2394 122.026 80.5611 109.066 78.957Z" fill="#FEBE9D"/>
</g>
<g filter="url(#filter2_d_141_32)">
<path d="M88.176 64.1403C82.6926 65.4734 81.4045 65.5084 81.1303 61.7783C75.9211 62.8443 64.6803 66.7276 61.3901 73.7343C57.2775 82.4921 61.3901 83.8908 64.1318 85.2231C66.8736 86.5549 65.5027 90.2846 61.9386 90.8176C58.3745 91.3505 58.1003 88.6864 57.826 87.0879C56.1809 94.2809 61.9386 94.2809 64.4061 93.2154C62.761 97.478 63.3095 100.675 67.1478 101.741C70.9861 102.806 67.1478 106.803 67.1478 110.532C67.1478 114.262 71.2604 116.393 71.5346 119.058C71.8089 121.722 75.0987 123.054 78.3885 124.119C81.6788 125.185 80.3079 126.517 78.9371 128.915C77.5662 131.312 79.7594 133.177 80.0337 136.374C80.3079 139.571 82.5011 139.838 85.2428 140.371C82.5011 135.842 84.1462 134.243 85.7913 132.911L85.8427 132.87C87.4647 131.556 88.8013 130.474 88.2588 126.784C87.7103 123.054 90.1778 122.255 92.3714 121.189C94.5646 120.123 97.5806 118.525 95.387 113.729C93.1938 108.934 100.048 105.737 101.693 100.941C103.338 96.1458 99.4996 90.2846 97.8545 88.1535C96.2097 86.0219 94.5646 82.8253 94.0161 81.493C93.468 80.1611 94.0161 80.1611 94.2904 80.4274C95.6612 81.7597 95.9355 80.6937 96.2097 79.3619C96.4291 78.2959 96.6667 75.1661 96.7578 73.7343C92.5768 70.7645 89.6759 66.3753 88.176 64.1403Z" fill="#2B2B39"/>
</g>
<path d="M111.953 82.5587V79.1124C118.769 79.5945 122.661 78.3426 125.442 75.632C131.099 82.2924 126.091 88.1536 125.269 89.4859C123.624 87.3543 120.334 86.5551 119.511 86.5551C118.689 86.5551 117.866 86.8214 117.044 85.4895C116.221 84.1572 115.947 82.5587 114.302 81.4931C112.986 80.6405 112.188 81.8486 111.953 82.5587Z" fill="#2B2B39"/>
<path d="M80.7502 76.38C82.4089 77.5944 85.2581 81.0128 83.3845 84.9694" stroke="#151523" stroke-width="0.8"/>
<path d="M88.1752 79.3862C91.717 82.114 97.975 88.8895 94.6689 94.1692C90.5364 100.769 89.6507 103.145 89.6507 108.16" stroke="#151523" stroke-width="0.8"/>
<path d="M81.2102 112.026C83.1013 111.232 86.2602 107.95 83.7637 101.175C81.2667 94.3994 84.4256 90.4114 86.3167 89.2646" stroke="#151523" stroke-width="0.8"/>
<path d="M71.6957 91.8411C69.4177 94.0395 66.2286 98.9111 71.6957 100.811C78.5297 103.185 80.17 105.559 77.9832 110.308" stroke="#151523" stroke-width="0.8"/>
<path d="M70.5315 105.154C71.2324 105.974 72.2132 108.324 70.5315 111.166" stroke="#151523" stroke-width="0.8"/>
<path d="M66.9746 76.0118C66.032 76.9023 64.7754 79.324 67.2886 81.8882C70.4308 85.0936 70.1167 86.9632 68.5457 89.0999" stroke="#151523" stroke-width="0.8"/>
<g opacity="0.5" filter="url(#filter3_d_141_32)">
<path d="M73.3056 64.9705C72.0729 66.6252 70.8557 68.4832 69.9091 70.3509C69.0119 72.1206 68.3512 73.9118 68.1569 75.5533C67.9627 77.1944 68.2322 78.7138 69.2348 79.9071C69.4737 80.1909 69.7069 80.4655 69.9334 80.7318C70.8358 81.7926 71.6287 82.7256 72.1999 83.6113C72.9104 84.7131 73.2475 85.6998 73.0306 86.7156C72.8121 87.7358 72.0232 88.8388 70.339 90.1471C69.1429 91.0766 67.5089 92.0988 65.3404 93.2583C65.2246 93.5281 65.1187 93.794 65.0236 94.0547C67.5364 92.7424 69.4116 91.5912 70.7629 90.5416C72.496 89.1954 73.3956 87.9945 73.6488 86.8112C73.9027 85.6234 73.4939 84.5069 72.7512 83.3545C72.1593 82.4366 71.3357 81.4686 70.431 80.4046L70.4306 80.4042C70.2069 80.1411 69.978 79.8721 69.7463 79.5966C68.8639 78.5466 68.5968 77.1741 68.7823 75.6066C68.9678 74.0399 69.6026 72.3049 70.4863 70.5622C71.5598 68.4446 72.99 66.3338 74.3911 64.5271C74.0289 64.67 73.6667 64.8181 73.3056 64.9705Z" fill="#1C1C2A"/>
</g>
<g opacity="0.5" filter="url(#filter4_d_141_32)">
<path d="M90.1952 67.2926C89.6511 69.1073 89.2371 71.558 89.3927 74.1795C89.5926 77.5442 90.733 81.2082 93.7625 84.1605C97.4623 87.7652 98.7691 90.3115 98.7691 92.5118C98.7691 94.7222 97.4559 96.6626 95.6587 99.0867C93.85 101.527 92.7845 103.931 92.9262 106.826C93.0492 109.347 94.0861 112.209 96.2813 115.764C96.1706 115.153 95.9537 114.473 95.607 113.713C95.4923 113.462 95.4024 113.215 95.3351 112.972C94.1402 110.602 93.563 108.596 93.4755 106.8C93.3417 104.069 94.3388 101.783 96.1045 99.4008C97.8826 97.0021 99.3191 94.9232 99.3191 92.5118C99.3191 90.0897 97.8762 87.4109 94.1513 83.7815C91.2413 80.9459 90.1359 77.42 89.9416 74.1485C89.7995 71.7535 90.1466 69.5045 90.6247 67.783C90.4774 67.6174 90.3341 67.4542 90.1952 67.2926Z" fill="#1C1C2A"/>
</g>
<g opacity="0.5" filter="url(#filter5_d_141_32)">
<path d="M84.7213 140.37C84.178 139.741 83.6617 139.005 83.2593 138.187C82.3661 136.371 82.0377 134.158 83.2044 131.781C84.58 128.978 84.0761 126.483 83.6124 124.187C83.5503 123.88 83.489 123.577 83.4333 123.277C83.1936 121.994 83.0476 120.772 83.3031 119.547C83.557 118.331 84.2122 117.089 85.6209 115.782C87.1163 114.394 87.6772 112.958 87.7895 111.467C87.8834 110.218 87.6605 108.928 87.4352 107.624C87.3958 107.396 87.356 107.167 87.3182 106.938C87.0614 105.385 86.8712 103.793 87.2091 102.113C87.5459 100.439 88.4116 98.6598 90.3039 96.7503L90.3115 96.7424L90.3186 96.7336C91.6314 95.1709 91.8316 93.0593 91.1239 90.9218C90.4352 88.8424 88.8837 86.7161 86.6128 84.973C87.264 83.7307 87.7071 80.7625 85.394 76.8701C83.889 74.3361 82.9528 72.1039 82.8529 69.9584C82.7801 68.3981 83.1487 66.8653 84.0924 65.2791C83.8787 65.2695 83.6812 65.2476 83.4989 65.2134C82.595 66.8075 82.2284 68.375 82.3036 69.9827C82.4095 72.2583 83.3986 74.5809 84.9184 77.1384C87.2593 81.0786 86.6208 83.9222 86.0536 84.852C84.3305 85.9797 81.9498 88.1355 80.3166 91.0002C78.7435 93.7595 77.8583 97.189 78.9414 100.986C78.8498 100.947 78.7559 100.909 78.6603 100.871C74.9852 99.4121 73.7318 97.7319 73.606 96.1417C73.4774 94.5137 74.5099 92.8451 75.7447 91.3748C76.9898 89.8921 78.601 87.6455 79.2693 85.1776C79.9424 82.6919 79.6582 79.9716 77.0956 77.6132C75.1934 75.8626 74.701 73.6081 74.871 71.4718C75.0413 69.3299 75.8768 67.333 76.5933 66.1551L76.12 65.8817C75.3697 67.1156 74.5008 69.191 74.3225 71.4304C74.1441 73.675 74.66 76.109 76.7179 78.0029C79.105 80.1997 79.3704 82.7038 78.7376 85.0411C78.0995 87.3963 76.5487 89.5708 75.3188 91.0356C74.0789 92.5124 72.9114 94.3275 73.0579 96.1827C73.2071 98.0754 74.7034 99.879 78.4529 101.367C78.7411 101.482 79.0098 101.599 79.2598 101.72C80.6143 102.371 81.4068 103.096 81.8208 103.842C82.2324 104.583 82.2865 105.377 82.1022 106.202C81.7273 107.879 80.3859 109.625 79.1643 111.163L79.0098 111.357C78.7746 111.652 78.5469 111.939 78.3367 112.212C77.0801 113.845 76.4922 115.243 76.5288 116.666C76.5559 117.726 76.9284 118.771 77.578 119.909C76.6872 119.247 75.7936 118.517 75.0604 117.684C74.0152 116.496 73.3138 115.12 73.4077 113.459C73.4519 112.676 73.6732 111.82 74.1302 110.88C74.7531 109.599 75.195 108.451 75.3733 107.445C75.5516 106.436 75.4692 105.543 75.0115 104.8C74.5537 104.056 73.7481 103.506 72.5766 103.126C71.5744 102.8 70.2867 102.592 68.677 102.497C68.7988 102.666 68.8812 102.851 68.9314 103.051C70.3759 103.151 71.519 103.347 72.4027 103.634C73.4997 103.99 74.1724 104.479 74.5398 105.075C74.9068 105.671 74.9963 106.42 74.8311 107.353C74.6656 108.29 74.248 109.386 73.6334 110.65C73.1546 111.636 72.9118 112.551 72.8601 113.405C72.5715 114.572 72.1424 116.439 71.7841 118.285C71.7427 118.498 71.7021 118.711 71.6627 118.923C71.6707 118.973 71.6771 119.022 71.6818 119.071C71.7232 119.473 71.8323 119.844 71.9991 120.189C72.0942 119.61 72.2049 119 72.3243 118.384C72.5452 117.247 72.7932 116.101 73.0181 115.118C73.2967 116.222 73.8973 117.185 74.6433 118.033C75.7419 119.281 77.174 120.299 78.3948 121.164L78.7853 120.799C77.6943 119.204 77.1107 117.916 77.0785 116.653C77.0463 115.397 77.5582 114.117 78.7766 112.534C78.8649 112.419 78.9565 112.301 79.0508 112.182C79.017 113.111 79.0444 114.322 79.2049 115.61C79.4222 117.357 79.8871 119.268 80.7927 120.812C81.6043 122.196 81.2838 123.83 80.4838 125.368C80.483 125.369 80.4822 125.371 80.481 125.372C80.6406 125.69 80.6267 126.039 80.5013 126.428C80.6696 126.163 80.8289 125.889 80.9742 125.61C81.8057 124.012 82.2188 122.163 81.2703 120.546C80.4161 119.089 79.9639 117.258 79.7506 115.546C79.5436 113.883 79.5643 112.353 79.6479 111.429C80.84 109.927 82.2387 108.109 82.6396 106.316C82.8453 105.395 82.7916 104.465 82.3044 103.587C81.8315 102.735 80.9666 101.961 79.6081 101.29C78.3678 97.4804 79.2152 94.0361 80.7974 91.2601C82.3462 88.5439 84.5932 86.4804 86.2451 85.3731C88.4598 87.0652 89.948 89.1163 90.6004 91.0866C91.2664 93.0983 91.0566 95.0021 89.9003 96.3861C87.9479 98.3588 87.0284 100.227 86.6694 102.01C86.3115 103.788 86.5165 105.461 86.7752 107.023C86.8146 107.26 86.8548 107.494 86.8946 107.725C87.1199 109.032 87.3297 110.249 87.2409 111.428C87.1382 112.792 86.6335 114.103 85.2416 115.394C83.7629 116.766 83.0432 118.103 82.7642 119.441C82.4867 120.77 82.6503 122.077 82.8919 123.373C82.9496 123.682 83.0113 123.99 83.0734 124.298C83.5356 126.6 84.0005 128.916 82.7084 131.549C81.4554 134.102 81.814 136.489 82.7634 138.419C83.0806 139.064 83.4643 139.66 83.8771 140.196C84.1493 140.257 84.4312 140.313 84.7213 140.37Z" fill="#1C1C2A"/>
</g>
<g filter="url(#filter6_d_141_32)">
<path d="M61.7117 73.8645C64.4323 72.0319 67.3181 70.6567 68.037 72.2043C69.4031 75.1446 72.1348 73.2738 72.9544 71.1351C73.774 68.9968 74.047 69.5314 75.4131 72.7388C75.9978 74.1121 76.3824 73.4278 76.9098 72.4893C77.6139 71.2354 78.5728 69.5286 80.6036 71.6689C82.3152 73.4724 83.9002 71.6753 85.3885 69.9868C86.9882 68.1721 88.4769 66.4836 89.8923 69.5306C90.8126 71.5117 91.4849 73.6444 92.1178 75.6529C92.738 77.6196 93.3203 79.4674 94.0615 80.9373C93.9138 80.2324 94.315 80.2734 94.5363 80.4903C95.9024 81.8266 96.1755 80.7574 96.4489 79.4208C96.6674 78.3516 96.9043 75.2111 96.995 73.7745C92.8287 70.7948 89.669 66.3829 88.1744 64.1403C82.7104 65.4777 81.6966 65.5207 81.4232 61.7783C76.2327 62.8479 65.0317 66.7443 61.7535 73.7745C61.7395 73.8044 61.7256 73.8346 61.7117 73.8645Z" fill="#1C1C2A"/>
</g>
<path d="M93.9816 81.5248C93.4327 80.1886 93.9816 80.1886 94.2558 80.4557C94.8768 81.0603 95.2728 81.1726 95.5455 80.9903C97.4019 82.7719 101.663 86.7627 103.858 88.4727C106.053 90.1831 111.723 92.036 114.284 92.7485C113.357 90.8781 111.59 86.2281 111.934 82.5936C112.168 81.8811 112.967 80.6695 114.284 81.5248C115.93 82.5936 116.204 84.1969 117.027 85.5331C117.851 86.8694 118.673 86.6023 119.497 86.6023C120.32 86.6023 123.612 87.4039 125.258 89.5418C125.715 89.8981 127.014 90.7177 128.55 91.1452C130.471 91.6797 132.94 94.3522 132.117 97.0243C131.294 99.6967 128.002 102.369 126.356 105.309C124.709 108.248 122.24 117.067 113.735 118.671C112.253 118.95 110.888 119.175 109.62 119.347C103.605 120.159 99.7536 119.761 95.9017 118.18C96.2723 117.121 96.2082 115.734 95.3532 113.86C93.1584 109.05 100.017 105.843 101.663 101.033C103.31 96.2226 99.4686 90.3435 97.8223 88.2056C96.1764 86.0677 94.5301 82.8607 93.9816 81.5248Z" fill="#8CB9FF"/>
<path d="M106.281 89.6921C107.838 91.8571 110.872 94.8799 114.652 95.2381C120.265 95.7707 121.067 90.7131 120.532 88.3173C118.127 90.181 113.85 91.7779 114.117 88.0514C114.154 87.5324 114.196 87.0392 114.237 86.5699C114.427 84.3548 114.573 82.6663 113.915 81.2779C112.752 80.6741 112.043 81.7906 111.827 82.4625C111.492 86.0823 113.214 90.7139 114.117 92.5772C112.29 92.0573 108.838 90.9285 106.281 89.6921Z" fill="#7EAEFA"/>
<path d="M103.901 118.721C103.104 118.516 102.322 118.272 101.539 117.992C101.963 116.934 101.89 115.547 100.91 113.674C99.3708 110.729 101.721 108.386 104.207 105.907C105.779 104.339 107.406 102.716 108.137 100.853C109.476 97.438 107.645 93.4838 105.795 90.7139C108.145 92.023 111.781 93.9416 114.42 94.9769C118.505 96.5794 117.563 99.5178 112.221 96.8465C110.022 95.7782 110.022 99.2507 114.42 101.12C118.819 102.99 126.988 102.723 129.816 96.3123C132.644 89.9019 136.1 90.7031 133.901 96.8465C131.701 102.99 127.302 109.667 123.846 111.805C122.172 112.839 119.761 113.123 117.291 113.412C114.662 113.721 111.966 114.037 110.022 115.277C107.13 117.12 106.318 118.621 106.255 119.212C105.761 119.133 105.276 119.041 104.798 118.936L103.901 118.721Z" fill="#7EAEFA"/>
<path opacity="0.5" d="M95.86 117.179C95.9894 116.239 95.7991 115.078 95.1156 113.622C93.738 110.687 95.8413 108.35 98.0655 105.879C99.4726 104.316 100.929 102.698 101.582 100.841C101.68 100.564 101.758 100.284 101.82 100.001L104.956 102.971C106.924 104.835 113.672 105.1 117.045 104.302C114.796 105.634 111.985 105.899 106.643 105.1C101.301 104.301 99.6143 106.697 102.707 108.295C105.8 109.892 114.796 107.496 117.889 105.366C115.089 109.946 109.754 110.599 105.848 111.077C105.44 111.126 105.047 111.175 104.675 111.225C103.303 111.411 101.795 111.272 100.447 111.149C97.9286 110.919 95.9718 110.741 96.5215 112.822C97.1274 115.118 96.4184 116.583 95.86 117.179Z" fill="#70A2F2"/>
<g filter="url(#filter7_d_141_32)">
<path d="M99.0138 37.2985C100.752 31.0974 106.077 30.9728 108.522 31.6857C109.88 31.9408 108.794 28.7457 113.412 28.2112C118.031 27.6766 121.019 30.617 122.378 32.7552C123.736 34.8935 124.822 37.0318 126.996 38.9026C128.082 42.1101 131.614 45.585 132.429 46.3866C132.429 47.1887 132.744 52.5014 132.744 54.9067C137.362 51.4322 135.418 48.2578 136.505 45.3175C137.374 42.9654 136.686 41.4863 136.233 41.0409C136.324 39.7934 136.396 36.9247 135.961 35.4281C135.418 33.5569 133.516 33.2898 132.701 33.2898C133.244 31.9532 132.701 30.617 131.886 30.082C131.071 29.5474 130.256 28.2112 129.169 26.0729C128.082 23.9346 123.736 20.4598 121.834 19.6579C119.933 18.8561 119.933 17.5197 119.389 16.9851C112.326 10.8375 106.077 13.5103 104.719 14.0449C103.36 14.5795 102.546 14.0449 102.002 13.7777C91.4068 7.36283 84.6149 16.4506 82.7135 19.1235C71.3032 23.9346 67.228 30.0824 68.0432 38.6355C68.858 47.1887 66.4132 50.3961 64.5114 52.2673C62.6095 54.1381 63.1528 56.0093 64.7828 58.1476C67.7713 62.4242 62.6095 62.9588 60.7081 64.0279C58.8062 65.097 60.1648 68.037 59.3496 69.3736C58.5344 70.7099 58.8062 73.3827 60.9795 75.521C64.2395 69.3736 73.4765 66.7008 78.6383 65.6316C83.8002 64.5625 88.6901 57.3456 92.4934 54.1381C96.2971 50.9307 96.8405 45.05 99.0138 37.2985Z" fill="#2B2B39"/>
</g>
<g opacity="0.5" filter="url(#filter8_d_141_32)">
<path d="M91.8735 54.7302C92.2946 48.2473 93.5576 40.5153 96.1863 34.6637C97.8031 31.0642 99.9199 28.215 102.637 26.7828C105.298 25.3801 108.588 25.3105 112.662 27.3317C112.61 27.7325 112.504 28.1123 112.361 28.4669C112.557 28.4136 112.766 28.3662 112.992 28.326C113.108 27.9714 113.19 27.5956 113.225 27.2012C113.346 25.8582 112.928 24.3317 111.567 22.7336C110.105 21.0156 108.602 19.6979 107.264 18.5251C106.853 18.1657 106.459 17.8198 106.086 17.4802C104.94 16.4376 103.995 15.4527 103.373 14.2995C103.108 14.2657 102.877 14.1927 102.672 14.1085C103.127 15.1072 103.795 15.9677 104.595 16.7952C103.293 16.2799 101.673 15.8088 99.9327 15.5808C96.4761 15.1278 92.4909 15.6296 89.5983 18.7179C86.5652 21.9565 84.0261 26.5969 81.9753 31.3814C79.9222 36.1699 78.3496 41.1227 77.2566 45.0012C76.1723 48.8479 74.3441 52.7535 71.9148 55.7914C70.1073 58.0519 67.979 59.818 65.5883 60.7347C65.5545 60.9711 65.4793 61.1861 65.3702 61.3835C68.0518 60.472 70.3979 58.5554 72.3447 56.1206C74.8277 53.0155 76.6834 49.0422 77.7824 45.1434C78.8722 41.2768 80.4381 36.3474 82.4785 31.588C84.5209 26.8238 87.0305 22.2501 90.0007 19.0788C92.379 16.5396 95.555 15.8357 98.5606 15.9908C95.6426 17.0893 90.708 19.9553 87.1141 25.4311C84.5599 29.3219 83.0604 34.9829 81.5694 40.6104L81.4511 41.057C79.9123 46.8609 78.3532 52.5796 75.6576 56.4052C73.5134 59.4482 70.5165 61.3115 67.6311 62.4037C65.1907 63.3276 62.8406 63.6954 61.1768 63.761C60.9643 63.8502 60.7692 63.9405 60.6 64.0353C60.4985 64.0922 60.4062 64.1543 60.3222 64.2212L60.3198 64.302C62.0382 64.3473 64.8714 64.0213 67.8277 62.902C70.7868 61.782 73.8847 59.8618 76.1066 56.7085C78.8686 52.789 80.4481 46.9664 81.9793 41.1912L82.0832 40.7991C83.5862 35.1266 85.0674 29.5373 87.573 25.7196C91.651 19.5067 97.4851 16.7385 99.9128 16.1172C101.714 16.3586 103.379 16.8671 104.673 17.4047C101.372 17.5943 95.9861 19.3517 93.6372 25.4816C92.8352 27.5753 91.7577 31.0033 90.4915 35.0319L90.3956 35.3372C89.0864 39.5023 87.5782 44.2892 85.9598 48.9256C84.3405 53.5628 82.6134 58.0411 80.868 61.5905C80.1034 63.1457 79.3375 64.5177 78.5785 65.6446C78.5892 65.6422 78.6 65.6398 78.6111 65.6378C78.8611 65.5861 79.1106 65.5204 79.3594 65.4412C80.0285 64.3915 80.6969 63.1707 81.36 61.8222C83.1193 58.2441 84.8548 53.7419 86.476 49.0983C88.0981 44.4531 89.6086 39.6587 90.9174 35.4944L91.0074 35.2078C92.2783 31.1637 93.3522 27.7473 94.1483 25.6691C96.6827 19.0546 102.904 17.7598 105.785 17.9357C106.149 18.2653 106.528 18.5974 106.918 18.9392C108.251 20.1081 109.713 21.3905 111.148 23.0756C112.287 24.4125 112.697 25.6599 112.699 26.753C108.598 24.7759 105.184 24.8336 102.378 26.3127C99.5048 27.8269 97.3239 30.8034 95.6868 34.4483C92.9434 40.5547 91.6773 48.6461 91.2928 55.2807C91.4886 55.0901 91.6824 54.9062 91.8735 54.7302Z" fill="#1C1C2A"/>
</g>
<g opacity="0.5" filter="url(#filter9_d_141_32)">
<path d="M65.1967 58.9817C68.3496 57.8532 70.1989 55.1175 71.4316 51.7727C72.1895 49.716 72.7213 47.413 73.1822 45.0808C73.3657 44.153 73.5377 43.2232 73.708 42.3017C73.9675 40.8978 74.2235 39.5134 74.5117 38.1831C75.8602 31.9605 79.8841 23.7796 82.3595 19.3112C82.0832 19.4291 81.8118 19.5479 81.5443 19.6675C79.0442 24.2616 75.2827 32.0521 73.9779 38.0725C73.6885 39.4071 73.4294 40.809 73.1683 42.2213C72.9979 43.1416 72.8272 44.0662 72.6464 44.9793C72.1867 47.3047 71.6609 49.5751 70.9181 51.5916C69.7009 54.8946 67.9197 57.4715 64.9264 58.5084C65.0287 58.672 65.1187 58.8296 65.1967 58.9817Z" fill="#1C1C2A"/>
</g>
<g filter="url(#filter10_d_141_32)">
<path d="M132.453 47.1044C132.849 47.1354 133.249 47.1557 133.646 47.1669C134.45 47.1896 135.256 47.1744 136.029 47.1346C136.05 46.9539 136.075 46.7744 136.105 46.5961C135.314 46.6391 134.487 46.6566 133.662 46.6335C133.248 46.6219 132.837 46.6001 132.434 46.567C132.437 46.7035 132.444 46.8855 132.453 47.1044Z" fill="#3A0A44"/>
</g>
<g filter="url(#filter11_d_141_32)">
<path d="M127.221 39.4971C130.737 41.2183 134.18 41.6111 136.456 41.5264C136.354 41.3353 136.246 41.1908 136.148 41.0945L136.151 41.0563L136.155 41.0009C133.785 41.0443 130.213 40.5567 126.653 38.5988C126.764 38.7011 126.877 38.8026 126.994 38.9029C127.061 39.1003 127.137 39.2985 127.221 39.4971Z" fill="#3A0A44"/>
</g>
<g opacity="0.5" filter="url(#filter12_d_141_32)">
<path d="M108.601 20.1013C109.824 18.7241 113.624 16.6895 119.866 17.9272C119.965 18.1255 120.08 18.3373 120.235 18.5503C113.855 17.1376 110.104 19.2184 109.009 20.4528L108.601 20.1013Z" fill="#1C1C2A"/>
</g>
<g opacity="0.5" filter="url(#filter13_d_141_32)">
<path d="M130.681 33.3676C131.367 33.4938 132.06 33.3995 132.752 32.9823C132.72 33.1057 132.679 33.2303 132.628 33.3545C132.765 33.3545 132.933 33.3621 133.121 33.384C132.298 33.9078 131.444 34.0507 130.582 33.8923C129.369 33.6693 128.188 32.8573 127.093 31.8117C125.385 30.1809 123.8 27.8917 122.551 26.0882C122.199 25.5787 121.873 25.1082 121.578 24.7022C120.584 23.3296 118.912 23.0554 117.136 23.323C115.365 23.5899 113.571 24.3874 112.462 25.043L112.184 24.5852C113.332 23.9061 115.193 23.0757 117.054 22.7954C118.91 22.5159 120.848 22.7755 122.019 24.3922C122.326 24.8157 122.661 25.2993 123.021 25.8183C124.268 27.6183 125.806 29.8402 127.47 31.428C128.54 32.4505 129.627 33.1734 130.681 33.3676Z" fill="#1C1C2A"/>
</g>
<g filter="url(#filter14_d_141_32)">
<path d="M112.749 20.9522C114.381 19.6966 118.464 18.2079 121.729 22.2975C124.995 26.3873 128.17 29.0244 129.35 29.8316M116.559 26.334C119.008 26.9617 124.287 29.0781 125.812 32.522C127.717 36.8268 131.255 39.5176 133.976 39.2485M131.799 41.9389C132.253 42.6566 133.541 43.8762 135.065 43.0152M111.388 15.5716C112.567 15.3922 115.252 15.1949 116.559 15.8407" stroke="#151523" stroke-width="0.8" shape-rendering="crispEdges"/>
</g>
<g filter="url(#filter15_d_141_32)">
<path d="M106.28 20.8364C102.666 20.7473 94.6787 23.4029 91.6424 34.7381M90.8293 25.3813C88.7511 29.2129 84.215 38.4809 82.6972 44.897C80.7994 52.9171 79.444 63.0764 65.8903 65.2151M68.6013 51.5805C69.8663 49.6202 72.2335 44.5228 71.5831 39.8175C70.7699 33.9361 71.8541 28.3221 76.7333 25.1138M98.9617 14.1528C94.1724 13.7963 84.0526 15.436 81.884 24.8463C79.7151 34.2569 75.0166 46.2336 72.9384 51.0455" stroke="#151523" stroke-width="0.8" shape-rendering="crispEdges"/>
</g>
</g>
<g filter="url(#filter16_d_141_32)">
<path d="M350.891 29.1301H274.037C270.642 29.1301 267.89 31.8818 267.89 35.2767V52.6992C267.89 56.0935 270.642 58.8458 274.037 58.8458H336.668L355.839 65.0768L350.567 58.8458H350.891C354.285 58.8458 357.037 56.0935 357.037 52.6992V35.2767C357.037 31.8818 354.285 29.1301 350.891 29.1301Z" fill="#FFBE56"/>
<path fill-rule="evenodd" clip-rule="evenodd" d="M288.499 46.3846C290.087 46.3846 291.375 45.0969 291.375 43.5088C291.375 41.9206 290.087 40.6329 288.499 40.6329C286.911 40.6329 285.624 41.9206 285.624 43.5088C285.624 45.0969 286.911 46.3846 288.499 46.3846ZM304.795 46.3846C306.383 46.3846 307.671 45.0969 307.671 43.5088C307.671 41.9206 306.383 40.6329 304.795 40.6329C303.207 40.6329 301.919 41.9206 301.919 43.5088C301.919 45.0969 303.207 46.3846 304.795 46.3846ZM323.487 43.5088C323.487 45.0969 322.2 46.3846 320.611 46.3846C319.023 46.3846 317.736 45.0969 317.736 43.5088C317.736 41.9206 319.023 40.6329 320.611 40.6329C322.2 40.6329 323.487 41.9206 323.487 43.5088ZM336.428 46.3846C338.016 46.3846 339.304 45.0969 339.304 43.5088C339.304 41.9206 338.016 40.6329 336.428 40.6329C334.84 40.6329 333.552 41.9206 333.552 43.5088C333.552 45.0969 334.84 46.3846 336.428 46.3846Z" fill="white"/>
</g>
<path d="M235.489 404.301C235.489 456.097 277.478 498.086 329.273 498.086C381.07 498.086 423.061 456.097 423.061 404.301C423.061 352.504 381.07 310.515 329.273 310.515C277.478 310.515 235.489 352.504 235.489 404.301Z" fill="white"/>
<path d="M329.273 497.086C278.03 497.086 236.489 455.545 236.489 404.301C236.489 353.057 278.03 311.515 329.273 311.515C380.517 311.515 422.061 353.057 422.061 404.301C422.061 455.545 380.517 497.086 329.273 497.086Z" stroke="#2773D9" stroke-opacity="0.6" stroke-width="2"/>
<path d="M347.127 342.696C337.607 362.435 321.261 350.663 317.508 342.695C324.956 342.693 322.568 327.597 321.499 320.049H343.498C343.083 331.675 345.743 339.992 347.127 342.696Z" fill="#FCC4AC"/>
<path d="M347.127 342.696C337.607 362.435 321.261 350.663 317.508 342.695C324.956 342.693 322.568 327.597 321.499 320.049H343.498C343.083 331.675 345.743 339.992 347.127 342.696Z" fill="url(#paint1_linear_141_32)"/>
<path d="M297.07 352.418C296.957 384.686 288.144 470.024 286.837 483.305C286.148 490.331 303.295 496.472 322.497 497.845C347.442 499.63 368.307 491.217 372.809 487.381C374.05 449.028 376.016 365.309 376.016 358.195C366.685 351.547 353.322 345.323 347.127 342.697C334.833 350.315 326.042 347.713 320.269 341.818C311.592 343.439 301.121 349.948 297.07 352.418Z" fill="#307FE2"/>
<path d="M297.07 352.418C296.957 384.686 288.144 470.024 286.837 483.305C286.148 490.331 303.295 496.472 322.497 497.845C347.442 499.63 368.307 491.217 372.809 487.381C374.05 449.028 376.016 365.309 376.016 358.195C366.685 351.547 353.322 345.323 347.127 342.697C334.833 350.315 326.042 347.713 320.269 341.818C311.592 343.439 301.121 349.948 297.07 352.418Z" fill="url(#paint2_linear_141_32)"/>
<path d="M297.07 352.418C296.957 384.686 288.144 470.024 286.837 483.305C286.148 490.331 303.295 496.472 322.497 497.845C347.442 499.63 368.307 491.217 372.809 487.381C374.05 449.028 376.016 365.309 376.016 358.195C366.685 351.547 353.322 345.323 347.127 342.697C334.833 350.315 326.042 347.713 320.269 341.818C311.592 343.439 301.121 349.948 297.07 352.418Z" fill="#2773D9"/>
<path opacity="0.35" d="M319.044 342.075C319.193 342.04 319.341 342.008 319.484 341.975C320.321 347.351 321.146 354.563 321.432 361.999C321.788 371.35 321.283 381.087 318.83 387.971C315.807 396.477 315.807 406.806 316.567 416.422C316.888 420.533 317.351 424.507 317.779 428.149V428.149V428.163C317.85 428.773 317.921 429.374 317.987 429.964C318.462 434.077 318.848 437.699 318.848 440.493C318.848 441.1 318.848 441.694 318.848 442.28C318.872 447.043 318.89 451.171 317.565 456.061C316.086 461.551 312.921 467.99 306.221 477.398C305.389 478.577 305.193 480.24 305.473 482.204C305.746 484.162 306.482 486.383 307.468 488.64C308.579 491.191 309.998 493.774 311.4 496.057C311.204 496.017 311.002 495.978 310.806 495.938C309.464 493.729 308.122 491.261 307.058 488.819C306.067 486.544 305.312 484.281 305.027 482.266C304.748 480.256 304.926 478.454 305.853 477.139V477.138C312.54 467.752 315.67 461.363 317.132 455.944C318.438 451.116 318.42 447.049 318.403 442.281V442.279C318.403 441.695 318.397 441.101 318.397 440.493C318.397 437.729 318.017 434.134 317.541 430.015C317.476 429.423 317.405 428.82 317.333 428.207V428.202V428.202C316.906 424.561 316.443 420.577 316.116 416.457C315.356 406.831 315.356 396.421 318.408 387.821C320.826 381.021 321.337 371.357 320.98 362.016C320.701 354.612 319.881 347.43 319.044 342.075Z" fill="white"/>
<path opacity="0.35" d="M290.415 488.938C290.629 489.085 290.849 489.231 291.08 489.376C290.201 487.289 289.548 485.247 289.293 483.43C289.019 481.466 289.209 479.803 290.041 478.624C296.74 469.217 299.906 462.778 301.391 457.287C302.709 452.398 302.692 448.27 302.674 443.506V443.496C302.668 442.915 302.668 442.323 302.668 441.719C302.668 438.925 302.288 435.304 301.813 431.191C301.741 430.6 301.67 429.999 301.599 429.389V429.375V429.375C301.171 425.733 300.708 421.759 300.387 417.648C299.627 408.032 299.627 397.703 302.656 389.198C305.103 382.313 305.608 372.576 305.251 363.226C305.05 357.96 304.58 352.807 304.022 348.339C303.88 348.416 303.737 348.494 303.6 348.572C304.147 352.987 304.604 358.06 304.8 363.242C305.156 372.583 304.646 382.247 302.228 389.047C299.176 397.647 299.176 408.057 299.936 417.683C300.262 421.804 300.726 425.787 301.153 429.428V429.428V429.433C301.225 430.046 301.296 430.649 301.367 431.242C301.842 435.361 302.217 438.955 302.217 441.719C302.217 442.326 302.222 442.92 302.222 443.502V443.507C302.24 448.275 302.258 452.342 300.957 457.17C299.49 462.589 296.36 468.978 289.673 478.364V478.365C288.746 479.68 288.568 481.482 288.847 483.492C289.085 485.18 289.655 487.041 290.415 488.938Z" fill="white"/>
<path opacity="0.35" d="M327.566 498.444C326.444 496.522 325.351 494.448 324.454 492.391C323.462 490.117 322.708 487.854 322.429 485.839C322.144 483.828 322.322 482.027 323.249 480.712V480.711C329.936 471.325 333.072 464.935 334.533 459.517C335.834 454.689 335.816 450.621 335.798 445.853V445.851C335.798 445.268 335.792 444.674 335.792 444.066C335.792 441.302 335.418 437.707 334.943 433.588C334.872 432.994 334.801 432.389 334.729 431.775V431.775C334.308 428.134 333.838 424.15 333.518 420.03C332.757 410.403 332.752 399.993 335.81 391.394C338.228 384.594 338.732 374.93 338.382 365.589C338.121 358.813 337.414 352.223 336.654 347.048C336.802 347.02 336.951 346.991 337.093 346.96C337.853 352.152 338.572 358.768 338.827 365.572C339.184 374.923 338.679 384.66 336.232 391.544C333.209 400.049 333.203 410.379 333.963 419.995C334.29 424.106 334.753 428.08 335.175 431.721V431.721C335.246 432.336 335.317 432.942 335.389 433.537C335.864 437.65 336.244 441.271 336.244 444.066C336.244 444.672 336.244 445.268 336.25 445.853C336.268 450.616 336.285 454.744 334.967 459.634C333.482 465.124 330.322 471.563 323.617 480.97C322.785 482.149 322.595 483.813 322.868 485.776C323.148 487.735 323.884 489.956 324.864 492.213C325.797 494.352 326.949 496.514 328.119 498.502C327.935 498.483 327.751 498.464 327.566 498.444Z" fill="white"/>
<path opacity="0.35" d="M346.145 499.616C344.779 497.38 343.412 494.872 342.331 492.391C341.34 490.116 340.585 487.853 340.3 485.838C340.021 483.828 340.199 482.026 341.126 480.711V480.711C347.813 471.324 350.944 464.935 352.411 459.516C353.711 454.688 353.693 450.621 353.676 445.853C353.676 445.268 353.67 444.674 353.67 444.066C353.67 441.301 353.296 437.706 352.82 433.588C352.749 432.994 352.678 432.39 352.607 431.775V431.774C352.185 428.133 351.716 424.15 351.395 420.03C350.629 410.403 350.629 399.993 353.687 391.393C356.105 384.594 356.61 374.929 356.259 365.589C355.98 358.329 355.184 351.283 354.371 345.962C354.531 346.039 354.691 346.117 354.858 346.195C355.659 351.495 356.431 358.429 356.705 365.571C357.061 374.923 356.556 384.659 354.109 391.544C351.086 400.049 351.08 410.378 351.84 419.994C352.167 424.106 352.63 428.08 353.052 431.721V431.729C353.123 432.341 353.195 432.944 353.266 433.536C353.741 437.649 354.121 441.271 354.121 444.066C354.121 444.672 354.121 445.266 354.127 445.85V445.852C354.145 450.616 354.163 454.743 352.844 459.633C351.359 465.124 348.2 471.563 341.494 480.97C340.663 482.149 340.472 483.812 340.746 485.776C341.025 487.735 341.761 489.955 342.741 492.212C343.852 494.761 345.271 497.343 346.673 499.625C346.495 499.622 346.323 499.619 346.145 499.616Z" fill="white"/>
<path opacity="0.35" d="M364.284 498.718C363.108 496.72 361.95 494.545 361.012 492.391C360.02 490.116 359.266 487.853 358.987 485.838C358.701 483.828 358.886 482.026 359.806 480.711L359.812 480.711C366.5 471.324 369.63 464.935 371.091 459.516C372.392 454.688 372.38 450.621 372.362 445.853C372.356 445.268 372.356 444.674 372.356 444.066C372.356 441.301 371.976 437.706 371.501 433.588C371.429 432.995 371.364 432.391 371.293 431.778V431.775C370.865 428.133 370.402 424.15 370.075 420.03C369.315 410.403 369.309 399.993 372.368 391.393C374.785 384.594 375.296 374.929 374.94 365.589C374.827 362.682 374.637 359.81 374.387 357.069C374.553 357.177 374.708 357.286 374.868 357.395C375.1 360.032 375.284 362.786 375.385 365.571C375.741 374.923 375.237 384.659 372.79 391.543C369.766 400.049 369.76 410.378 370.521 419.994C370.847 424.106 371.311 428.08 371.738 431.721C371.81 432.336 371.875 432.941 371.946 433.536C372.421 437.649 372.801 441.271 372.801 444.066C372.801 444.672 372.807 445.267 372.807 445.852C372.825 450.616 372.843 454.743 371.524 459.633C370.04 465.123 366.88 471.563 360.174 480.97C359.349 482.149 359.153 483.812 359.432 485.776C359.705 487.735 360.442 489.955 361.428 492.212C362.378 494.401 363.56 496.615 364.76 498.641C364.605 498.667 364.445 498.693 364.284 498.718Z" fill="white"/>
<path d="M308.159 288.315C307.862 295.075 308.159 311.593 308.159 323.692C308.159 344.144 338.812 328.286 343.498 320.048C352.728 303.823 342.524 289.191 340.576 288.315H308.159Z" fill="url(#paint3_linear_141_32)"/>
<path d="M308.159 288.315C307.862 295.075 308.159 311.593 308.159 323.692C308.159 344.144 338.812 328.286 343.498 320.048C352.728 303.823 342.524 289.191 340.576 288.315H308.159Z" fill="#FCC4AC"/>
<path d="M343.985 282.353C350.684 281.081 349.704 286.506 349.318 287.389C365.325 291.799 345.867 324.132 343.48 324.805L343.462 318.772C343.438 316.367 348.142 313.917 345.57 309.692C342.155 304.083 341.413 315.105 341.413 315.105C338.989 313.829 338.11 304.682 340.367 299.507C332.444 303.002 327.247 296.491 326.244 294.631C320.655 297.88 312.09 296.575 309.334 293.9C308.895 295.392 308.022 298.171 308.022 303.036C301.631 299.595 298.335 286.891 301.714 288.05C301.281 262.752 323.607 271.848 326.244 274.854C328.875 277.861 329.498 277.019 329.843 276.794C339.251 272.201 343.824 276.752 342.945 279.652C342.06 282.551 343.723 282.412 343.985 282.353Z" fill="#6E000E"/>
<path d="M211.676 395.481C206.887 395.907 202.726 393.049 203.658 392.725C216.119 388.401 232.872 393.787 242.556 396.758C245.955 403.627 240.314 411.238 237.069 414.185C235.434 412.534 232.051 410.398 229.833 410.398C218.561 409.779 207.712 425.952 196.688 417.901C187.869 411.46 203.006 400.27 211.676 395.481Z" fill="#F4B88E"/>
<path d="M211.676 395.481C206.887 395.907 202.726 393.049 203.658 392.725C216.119 388.401 232.872 393.787 242.556 396.758C245.955 403.627 240.314 411.238 237.069 414.185C235.434 412.534 232.051 410.398 229.833 410.398C218.561 409.779 207.712 425.952 196.688 417.901C187.869 411.46 203.006 400.27 211.676 395.481Z" fill="#FCC4AC"/>
<path d="M297.069 352.413C298.239 374.048 294.693 411.312 291.997 430.274C289.146 437.42 228.471 415.17 230.083 410.868C231.696 406.566 235.734 400.261 237.728 395.197C239.096 391.723 274.019 408.09 275.31 402.219C276.602 396.348 277.596 363.355 297.069 352.413Z" fill="#307FE2"/>
<path d="M297.069 352.413C298.239 374.048 294.693 411.312 291.997 430.274C289.146 437.42 228.471 415.17 230.083 410.868C231.696 406.566 235.734 400.261 237.728 395.197C239.096 391.723 274.019 408.09 275.31 402.219C276.602 396.348 277.596 363.355 297.069 352.413Z" fill="url(#paint4_linear_141_32)"/>
<path d="M297.069 352.413C298.239 374.048 294.693 411.312 291.997 430.274C289.146 437.42 228.471 415.17 230.083 410.868C231.696 406.566 235.734 400.261 237.728 395.197C239.096 391.723 274.019 408.09 275.31 402.219C276.602 396.348 277.596 363.355 297.069 352.413Z" fill="#2773D9"/>
<path opacity="0.35" fill-rule="evenodd" clip-rule="evenodd" d="M294.167 354.07C289.789 365.859 288.572 382.801 290.55 395.65C291.536 402.058 292.064 407.686 291.215 412.294C290.371 416.885 288.162 420.456 283.658 422.774C281.99 423.633 280.448 423.526 278.823 422.933C277.614 422.492 276.381 421.79 275.025 421.019C274.537 420.741 274.032 420.454 273.507 420.167C269.561 418.009 264.62 415.951 257.243 418.221C251.493 419.991 245.784 418.15 241.233 415.29C236.676 412.426 233.328 408.571 232.301 406.394L231.895 406.586C232.968 408.862 236.388 412.775 240.994 415.67C245.604 418.567 251.452 420.473 257.375 418.651C264.589 416.431 269.398 418.432 273.291 420.561C273.797 420.837 274.291 421.118 274.773 421.392C276.14 422.17 277.422 422.899 278.669 423.355C280.376 423.978 282.055 424.105 283.864 423.174C288.512 420.782 290.793 417.082 291.654 412.375C292.521 407.686 291.975 401.99 290.989 395.581C289.023 382.796 290.241 365.933 294.588 354.226L294.167 354.07ZM284.863 367.146C285.006 366.388 285.138 365.689 285.252 365.061L284.811 364.98C284.697 365.605 284.566 366.302 284.423 367.059C283.651 371.151 282.544 377.02 281.963 383.024C281.275 390.127 281.317 397.477 283.557 402.314C286.19 407.996 285.125 411.924 282.752 413.863C280.362 415.815 276.559 415.832 273.535 413.513C271.898 412.258 269.297 410.722 265.919 410.268C262.535 409.814 258.392 410.448 253.68 413.503C252.475 414.284 250.58 414.42 248.415 414C246.261 413.583 243.884 412.625 241.754 411.282C239.624 409.938 237.756 408.217 236.605 406.282C235.456 404.352 235.025 402.217 235.744 400.02L235.317 399.88C234.549 402.226 235.019 404.496 236.22 406.512C237.417 408.524 239.344 410.292 241.514 411.661C243.686 413.032 246.115 414.012 248.33 414.441C250.535 414.867 252.574 414.756 253.924 413.88C258.552 410.879 262.588 410.273 265.859 410.713C269.135 411.153 271.664 412.644 273.262 413.87C276.426 416.295 280.462 416.313 283.036 414.211C285.625 412.095 286.647 407.915 283.965 402.125C281.78 397.409 281.723 390.17 282.41 383.067C282.989 377.085 284.091 371.239 284.863 367.146Z" fill="white"/>
<path d="M237.728 395.198C235.734 400.262 231.696 406.566 230.083 410.868C229.808 411.606 231.358 412.868 234.132 414.42C238.586 411.122 242.437 400.501 243.805 395.603C240.42 394.687 238.064 394.345 237.728 395.198Z" fill="#105CC1"/>
<path d="M362.989 500.889C365.103 499.908 372.237 485.698 376.014 475.816L367.449 468.952C355.405 472.995 350.415 485.047 353.439 484.551C356.462 484.054 356.741 485.688 354.139 489.118C344.144 502.276 360.079 502.243 362.989 500.889Z" fill="#FCC4AC"/>
<path d="M401.303 427.191C406.631 409.628 389.312 368.833 376.014 358.196C376.014 362.539 375.182 382.639 374.731 409.326C382.363 423.001 363.547 464.601 361.789 468.11C360.025 471.619 375.396 484.735 377.908 479.66C380.421 474.584 395.311 446.939 401.303 427.191Z" fill="#307FE2"/>
<path d="M401.303 427.191C406.631 409.628 389.312 368.833 376.014 358.196C376.014 362.539 375.182 382.639 374.731 409.326C382.363 423.001 363.547 464.601 361.789 468.11C360.025 471.619 375.396 484.735 377.908 479.66C380.421 474.584 395.311 446.939 401.303 427.191Z" fill="url(#paint5_linear_141_32)"/>
<path d="M401.303 427.191C406.631 409.628 389.312 368.833 376.014 358.196C376.014 362.539 375.182 382.639 374.731 409.326C382.363 423.001 363.547 464.601 361.789 468.11C360.025 471.619 375.396 484.735 377.908 479.66C380.421 474.584 395.311 446.939 401.303 427.191Z" fill="#2773D9"/>
<path opacity="0.35" fill-rule="evenodd" clip-rule="evenodd" d="M377.906 369.841C377.187 368.952 376.528 368.137 375.958 367.41L375.601 367.687C376.177 368.422 376.848 369.244 377.573 370.139C379.907 373.019 382.859 376.654 385.353 380.586C388.632 385.746 391.091 391.359 390.402 396.387C389.951 399.632 390.657 403.02 391.81 406.402C392.605 408.745 393.615 411.103 394.607 413.419C395.047 414.441 395.486 415.455 395.896 416.455C397.244 419.735 398.337 422.875 398.515 425.763C398.687 428.638 397.951 431.258 395.629 433.518C391.162 437.876 390.242 441.82 389.357 445.583C389.244 446.074 389.131 446.562 389.006 447.048C388.484 449.147 387.83 451.199 386.423 453.275C385.015 455.35 382.847 457.463 379.278 459.665C377.888 460.521 376.629 462.132 375.554 464.056C374.473 465.986 373.558 468.254 372.875 470.455C372.186 472.655 371.723 474.796 371.545 476.472C371.455 477.309 371.432 478.039 371.497 478.606C371.515 478.784 371.545 478.95 371.586 479.1C369.977 478.184 368.284 476.929 366.769 475.575C365.95 471.855 366.324 467.393 367.732 463.467C369.145 459.513 371.58 456.141 374.829 454.603C377.846 453.177 379.438 451.381 380.293 449.336C381.137 447.306 381.244 445.049 381.321 442.731C381.327 442.636 381.327 442.542 381.333 442.447C381.404 440.206 381.481 437.903 382.17 435.617C382.883 433.242 384.255 430.879 386.981 428.643C389.689 426.424 390.604 424.174 390.432 421.89C390.271 419.63 389.048 417.378 387.599 415.142C387.141 414.436 386.66 413.733 386.185 413.029C385.134 411.486 384.077 409.941 383.263 408.375C382.075 406.101 381.422 403.832 381.998 401.535C384.938 389.815 377.799 382.248 375.554 380.162L375.245 380.491C377.46 382.546 384.439 389.953 381.558 401.426C380.947 403.879 381.659 406.268 382.865 408.582C383.691 410.173 384.771 411.754 385.829 413.309C386.31 414.007 386.779 414.701 387.224 415.387C388.674 417.62 389.832 419.788 389.986 421.922C390.141 424.032 389.321 426.149 386.702 428.295C383.898 430.589 382.479 433.029 381.742 435.488C381.036 437.831 380.958 440.187 380.881 442.416C380.881 442.516 380.875 442.616 380.875 442.716C380.792 445.045 380.685 447.221 379.877 449.164C379.076 451.093 377.567 452.812 374.639 454.198C371.242 455.805 368.741 459.299 367.31 463.316C365.873 467.335 365.48 471.916 366.348 475.743L366.365 475.813L366.419 475.861C368.177 477.441 370.184 478.897 372.038 479.859L372.275 479.477C372.21 479.433 372.138 479.344 372.079 479.184C372.02 479.026 371.972 478.817 371.943 478.556C371.883 478.035 371.901 477.341 371.99 476.52C372.162 474.88 372.62 472.768 373.303 470.589C373.98 468.409 374.882 466.171 375.946 464.276C377.009 462.374 378.22 460.843 379.515 460.047C383.12 457.82 385.342 455.666 386.797 453.527C388.246 451.387 388.917 449.276 389.446 447.157C389.564 446.666 389.683 446.175 389.796 445.682C390.675 441.929 391.572 438.103 395.943 433.839C398.373 431.473 399.139 428.719 398.961 425.736C398.782 422.767 397.66 419.567 396.312 416.285C395.896 415.27 395.456 414.249 395.011 413.222C394.025 410.915 393.021 408.584 392.231 406.257C391.091 402.901 390.408 399.592 390.842 396.448C391.56 391.251 389.018 385.519 385.734 380.346C383.221 376.388 380.246 372.723 377.906 369.841Z" fill="white"/>
<path d="M370.188 447.336C374.916 433.689 379.044 417.052 374.732 409.327C386.314 417.447 377.517 435.616 370.188 447.336Z" fill="#105CC1"/>
<path d="M361.789 468.11C360.025 471.62 375.396 484.735 377.908 479.66C378.104 479.269 378.372 478.744 378.698 478.099C375.016 477.276 366.725 473.612 362.983 465.534C362.407 466.821 361.985 467.712 361.789 468.11Z" fill="#307FE2"/>
<path d="M361.789 468.11C360.025 471.62 375.396 484.735 377.908 479.66C378.104 479.269 378.372 478.744 378.698 478.099C375.016 477.276 366.725 473.612 362.983 465.534C362.407 466.821 361.985 467.712 361.789 468.11Z" fill="url(#paint6_linear_141_32)"/>
<path d="M361.789 468.11C360.025 471.62 375.396 484.735 377.908 479.66C378.104 479.269 378.372 478.744 378.698 478.099C375.016 477.276 366.725 473.612 362.983 465.534C362.407 466.821 361.985 467.712 361.789 468.11Z" fill="#105CC1"/>
<path d="M252.638 306.029H175.784C172.389 306.029 169.637 308.781 169.637 312.176V329.598C169.637 332.992 172.389 335.745 175.784 335.745H238.415L257.586 341.976L252.314 335.745H252.638C256.032 335.745 258.784 332.992 258.784 329.598V312.176C258.784 308.781 256.032 306.029 252.638 306.029Z" fill="#8BBAFA"/>
<path fill-rule="evenodd" clip-rule="evenodd" d="M190.246 323.283C191.834 323.283 193.122 321.996 193.122 320.408C193.122 318.819 191.834 317.532 190.246 317.532C188.658 317.532 187.371 318.819 187.371 320.408C187.371 321.996 188.658 323.283 190.246 323.283ZM206.542 323.283C208.13 323.283 209.418 321.996 209.418 320.408C209.418 318.819 208.13 317.532 206.542 317.532C204.954 317.532 203.666 318.819 203.666 320.408C203.666 321.996 204.954 323.283 206.542 323.283ZM225.234 320.408C225.234 321.996 223.947 323.283 222.358 323.283C220.77 323.283 219.483 321.996 219.483 320.408C219.483 318.819 220.77 317.532 222.358 317.532C223.947 317.532 225.234 318.819 225.234 320.408ZM238.175 323.283C239.763 323.283 241.051 321.996 241.051 320.408C241.051 318.819 239.763 317.532 238.175 317.532C236.587 317.532 235.299 318.819 235.299 320.408C235.299 321.996 236.587 323.283 238.175 323.283Z" fill="white"/>
<defs>
<filter id="filter0_d_141_32" x="0" y="26.363" width="203.318" height="203.318" filterUnits="userSpaceOnUse" color-interpolation-filters="sRGB">
<feFlood flood-opacity="0" result="BackgroundImageFix"/>
<feColorMatrix in="SourceAlpha" type="matrix" values="0 0 0 0 0 0 0 0 0 0 0 0 0 0 0 0 0 0 127 0" result="hardAlpha"/>
<feOffset dy="4"/>
<feGaussianBlur stdDeviation="2"/>
<feComposite in2="hardAlpha" operator="out"/>
<feColorMatrix type="matrix" values="0 0 0 0 0 0 0 0 0 0 0 0 0 0 0 0 0 0 0.25 0"/>
<feBlend mode="normal" in2="BackgroundImageFix" result="effect1_dropShadow_141_32"/>
<feBlend mode="normal" in="SourceGraphic" in2="effect1_dropShadow_141_32" result="shape"/>
</filter>
<filter id="filter1_d_141_32" x="76.7463" y="25.7032" width="60.4492" height="61.6477" filterUnits="userSpaceOnUse" color-interpolation-filters="sRGB">
<feFlood flood-opacity="0" result="BackgroundImageFix"/>
<feColorMatrix in="SourceAlpha" type="matrix" values="0 0 0 0 0 0 0 0 0 0 0 0 0 0 0 0 0 0 127 0" result="hardAlpha"/>
<feOffset dy="4"/>
<feGaussianBlur stdDeviation="2"/>
<feComposite in2="hardAlpha" operator="out"/>
<feColorMatrix type="matrix" values="0 0 0 0 0 0 0 0 0 0 0 0 0 0 0 0 0 0 0.25 0"/>
<feBlend mode="normal" in2="BackgroundImageFix" result="effect1_dropShadow_141_32"/>
<feBlend mode="normal" in="SourceGraphic" in2="effect1_dropShadow_141_32" result="shape"/>
</filter>
<filter id="filter2_d_141_32" x="53.535" y="61.7783" width="52.5591" height="86.5924" filterUnits="userSpaceOnUse" color-interpolation-filters="sRGB">
<feFlood flood-opacity="0" result="BackgroundImageFix"/>
<feColorMatrix in="SourceAlpha" type="matrix" values="0 0 0 0 0 0 0 0 0 0 0 0 0 0 0 0 0 0 127 0" result="hardAlpha"/>
<feOffset dy="4"/>
<feGaussianBlur stdDeviation="2"/>
<feComposite in2="hardAlpha" operator="out"/>
<feColorMatrix type="matrix" values="0 0 0 0 0 0 0 0 0 0 0 0 0 0 0 0 0 0 0.25 0"/>
<feBlend mode="normal" in2="BackgroundImageFix" result="effect1_dropShadow_141_32"/>
<feBlend mode="normal" in="SourceGraphic" in2="effect1_dropShadow_141_32" result="shape"/>
</filter>
<filter id="filter3_d_141_32" x="61.0236" y="64.5271" width="17.3676" height="37.5276" filterUnits="userSpaceOnUse" color-interpolation-filters="sRGB">
<feFlood flood-opacity="0" result="BackgroundImageFix"/>
<feColorMatrix in="SourceAlpha" type="matrix" values="0 0 0 0 0 0 0 0 0 0 0 0 0 0 0 0 0 0 127 0" result="hardAlpha"/>
<feOffset dy="4"/>
<feGaussianBlur stdDeviation="2"/>
<feComposite in2="hardAlpha" operator="out"/>
<feColorMatrix type="matrix" values="0 0 0 0 0 0 0 0 0 0 0 0 0 0 0 0 0 0 0.25 0"/>
<feBlend mode="normal" in2="BackgroundImageFix" result="effect1_dropShadow_141_32"/>
<feBlend mode="normal" in="SourceGraphic" in2="effect1_dropShadow_141_32" result="shape"/>
</filter>
<filter id="filter4_d_141_32" x="85.3596" y="67.2926" width="17.9595" height="56.4713" filterUnits="userSpaceOnUse" color-interpolation-filters="sRGB">
<feFlood flood-opacity="0" result="BackgroundImageFix"/>
<feColorMatrix in="SourceAlpha" type="matrix" values="0 0 0 0 0 0 0 0 0 0 0 0 0 0 0 0 0 0 127 0" result="hardAlpha"/>
<feOffset dy="4"/>
<feGaussianBlur stdDeviation="2"/>
<feComposite in2="hardAlpha" operator="out"/>
<feColorMatrix type="matrix" values="0 0 0 0 0 0 0 0 0 0 0 0 0 0 0 0 0 0 0.25 0"/>
<feBlend mode="normal" in2="BackgroundImageFix" result="effect1_dropShadow_141_32"/>
<feBlend mode="normal" in="SourceGraphic" in2="effect1_dropShadow_141_32" result="shape"/>
</filter>
<filter id="filter5_d_141_32" x="64.677" y="65.2134" width="30.8492" height="83.1565" filterUnits="userSpaceOnUse" color-interpolation-filters="sRGB">
<feFlood flood-opacity="0" result="BackgroundImageFix"/>
<feColorMatrix in="SourceAlpha" type="matrix" values="0 0 0 0 0 0 0 0 0 0 0 0 0 0 0 0 0 0 127 0" result="hardAlpha"/>
<feOffset dy="4"/>
<feGaussianBlur stdDeviation="2"/>
<feComposite in2="hardAlpha" operator="out"/>
<feColorMatrix type="matrix" values="0 0 0 0 0 0 0 0 0 0 0 0 0 0 0 0 0 0 0.25 0"/>
<feBlend mode="normal" in2="BackgroundImageFix" result="effect1_dropShadow_141_32"/>
<feBlend mode="normal" in="SourceGraphic" in2="effect1_dropShadow_141_32" result="shape"/>
</filter>
<filter id="filter6_d_141_32" x="57.7117" y="61.7783" width="43.2833" height="27.326" filterUnits="userSpaceOnUse" color-interpolation-filters="sRGB">
<feFlood flood-opacity="0" result="BackgroundImageFix"/>
<feColorMatrix in="SourceAlpha" type="matrix" values="0 0 0 0 0 0 0 0 0 0 0 0 0 0 0 0 0 0 127 0" result="hardAlpha"/>
<feOffset dy="4"/>
<feGaussianBlur stdDeviation="2"/>
<feComposite in2="hardAlpha" operator="out"/>
<feColorMatrix type="matrix" values="0 0 0 0 0 0 0 0 0 0 0 0 0 0 0 0 0 0 0.25 0"/>
<feBlend mode="normal" in2="BackgroundImageFix" result="effect1_dropShadow_141_32"/>
<feBlend mode="normal" in="SourceGraphic" in2="effect1_dropShadow_141_32" result="shape"/>
</filter>
<filter id="filter7_d_141_32" x="54.9269" y="11.5308" width="85.995" height="71.9902" filterUnits="userSpaceOnUse" color-interpolation-filters="sRGB">
<feFlood flood-opacity="0" result="BackgroundImageFix"/>
<feColorMatrix in="SourceAlpha" type="matrix" values="0 0 0 0 0 0 0 0 0 0 0 0 0 0 0 0 0 0 127 0" result="hardAlpha"/>
<feOffset dy="4"/>
<feGaussianBlur stdDeviation="2"/>
<feComposite in2="hardAlpha" operator="out"/>
<feColorMatrix type="matrix" values="0 0 0 0 0 0 0 0 0 0 0 0 0 0 0 0 0 0 0.25 0"/>
<feBlend mode="normal" in2="BackgroundImageFix" result="effect1_dropShadow_141_32"/>
<feBlend mode="normal" in="SourceGraphic" in2="effect1_dropShadow_141_32" result="shape"/>
</filter>
<filter id="filter8_d_141_32" x="56.3198" y="14.1085" width="60.9253" height="59.536" filterUnits="userSpaceOnUse" color-interpolation-filters="sRGB">
<feFlood flood-opacity="0" result="BackgroundImageFix"/>
<feColorMatrix in="SourceAlpha" type="matrix" values="0 0 0 0 0 0 0 0 0 0 0 0 0 0 0 0 0 0 127 0" result="hardAlpha"/>
<feOffset dy="4"/>
<feGaussianBlur stdDeviation="2"/>
<feComposite in2="hardAlpha" operator="out"/>
<feColorMatrix type="matrix" values="0 0 0 0 0 0 0 0 0 0 0 0 0 0 0 0 0 0 0.25 0"/>
<feBlend mode="normal" in2="BackgroundImageFix" result="effect1_dropShadow_141_32"/>
<feBlend mode="normal" in="SourceGraphic" in2="effect1_dropShadow_141_32" result="shape"/>
</filter>
<filter id="filter9_d_141_32" x="60.9264" y="19.3112" width="25.4331" height="47.6705" filterUnits="userSpaceOnUse" color-interpolation-filters="sRGB">
<feFlood flood-opacity="0" result="BackgroundImageFix"/>
<feColorMatrix in="SourceAlpha" type="matrix" values="0 0 0 0 0 0 0 0 0 0 0 0 0 0 0 0 0 0 127 0" result="hardAlpha"/>
<feOffset dy="4"/>
<feGaussianBlur stdDeviation="2"/>
<feComposite in2="hardAlpha" operator="out"/>
<feColorMatrix type="matrix" values="0 0 0 0 0 0 0 0 0 0 0 0 0 0 0 0 0 0 0.25 0"/>
<feBlend mode="normal" in2="BackgroundImageFix" result="effect1_dropShadow_141_32"/>
<feBlend mode="normal" in="SourceGraphic" in2="effect1_dropShadow_141_32" result="shape"/>
</filter>
<filter id="filter10_d_141_32" x="128.434" y="46.567" width="11.6715" height="8.61047" filterUnits="userSpaceOnUse" color-interpolation-filters="sRGB">
<feFlood flood-opacity="0" result="BackgroundImageFix"/>
<feColorMatrix in="SourceAlpha" type="matrix" values="0 0 0 0 0 0 0 0 0 0 0 0 0 0 0 0 0 0 127 0" result="hardAlpha"/>
<feOffset dy="4"/>
<feGaussianBlur stdDeviation="2"/>
<feComposite in2="hardAlpha" operator="out"/>
<feColorMatrix type="matrix" values="0 0 0 0 0 0 0 0 0 0 0 0 0 0 0 0 0 0 0.25 0"/>
<feBlend mode="normal" in2="BackgroundImageFix" result="effect1_dropShadow_141_32"/>
<feBlend mode="normal" in="SourceGraphic" in2="effect1_dropShadow_141_32" result="shape"/>
</filter>
<filter id="filter11_d_141_32" x="122.653" y="38.5988" width="17.8033" height="10.9384" filterUnits="userSpaceOnUse" color-interpolation-filters="sRGB">
<feFlood flood-opacity="0" result="BackgroundImageFix"/>
<feColorMatrix in="SourceAlpha" type="matrix" values="0 0 0 0 0 0 0 0 0 0 0 0 0 0 0 0 0 0 127 0" result="hardAlpha"/>
<feOffset dy="4"/>
<feGaussianBlur stdDeviation="2"/>
<feComposite in2="hardAlpha" operator="out"/>
<feColorMatrix type="matrix" values="0 0 0 0 0 0 0 0 0 0 0 0 0 0 0 0 0 0 0.25 0"/>
<feBlend mode="normal" in2="BackgroundImageFix" result="effect1_dropShadow_141_32"/>
<feBlend mode="normal" in="SourceGraphic" in2="effect1_dropShadow_141_32" result="shape"/>
</filter>
<filter id="filter12_d_141_32" x="104.601" y="17.5436" width="19.6332" height="10.9092" filterUnits="userSpaceOnUse" color-interpolation-filters="sRGB">
<feFlood flood-opacity="0" result="BackgroundImageFix"/>
<feColorMatrix in="SourceAlpha" type="matrix" values="0 0 0 0 0 0 0 0 0 0 0 0 0 0 0 0 0 0 127 0" result="hardAlpha"/>
<feOffset dy="4"/>
<feGaussianBlur stdDeviation="2"/>
<feComposite in2="hardAlpha" operator="out"/>
<feColorMatrix type="matrix" values="0 0 0 0 0 0 0 0 0 0 0 0 0 0 0 0 0 0 0.25 0"/>
<feBlend mode="normal" in2="BackgroundImageFix" result="effect1_dropShadow_141_32"/>
<feBlend mode="normal" in="SourceGraphic" in2="effect1_dropShadow_141_32" result="shape"/>
</filter>
<filter id="filter13_d_141_32" x="108.184" y="22.6979" width="28.9366" height="19.2555" filterUnits="userSpaceOnUse" color-interpolation-filters="sRGB">
<feFlood flood-opacity="0" result="BackgroundImageFix"/>
<feColorMatrix in="SourceAlpha" type="matrix" values="0 0 0 0 0 0 0 0 0 0 0 0 0 0 0 0 0 0 127 0" result="hardAlpha"/>
<feOffset dy="4"/>
<feGaussianBlur stdDeviation="2"/>
<feComposite in2="hardAlpha" operator="out"/>
<feColorMatrix type="matrix" values="0 0 0 0 0 0 0 0 0 0 0 0 0 0 0 0 0 0 0.25 0"/>
<feBlend mode="normal" in2="BackgroundImageFix" result="effect1_dropShadow_141_32"/>
<feBlend mode="normal" in="SourceGraphic" in2="effect1_dropShadow_141_32" result="shape"/>
</filter>
<filter id="filter14_d_141_32" x="107.328" y="14.9961" width="31.9341" height="36.7152" filterUnits="userSpaceOnUse" color-interpolation-filters="sRGB">
<feFlood flood-opacity="0" result="BackgroundImageFix"/>
<feColorMatrix in="SourceAlpha" type="matrix" values="0 0 0 0 0 0 0 0 0 0 0 0 0 0 0 0 0 0 127 0" result="hardAlpha"/>
<feOffset dy="4"/>
<feGaussianBlur stdDeviation="2"/>
<feComposite in2="hardAlpha" operator="out"/>
<feColorMatrix type="matrix" values="0 0 0 0 0 0 0 0 0 0 0 0 0 0 0 0 0 0 0.25 0"/>
<feBlend mode="normal" in2="BackgroundImageFix" result="effect1_dropShadow_141_32"/>
<feBlend mode="normal" in="SourceGraphic" in2="effect1_dropShadow_141_32" result="shape"/>
</filter>
<filter id="filter15_d_141_32" x="61.8279" y="13.7085" width="48.4625" height="59.9017" filterUnits="userSpaceOnUse" color-interpolation-filters="sRGB">
<feFlood flood-opacity="0" result="BackgroundImageFix"/>
<feColorMatrix in="SourceAlpha" type="matrix" values="0 0 0 0 0 0 0 0 0 0 0 0 0 0 0 0 0 0 127 0" result="hardAlpha"/>
<feOffset dy="4"/>
<feGaussianBlur stdDeviation="2"/>
<feComposite in2="hardAlpha" operator="out"/>
<feColorMatrix type="matrix" values="0 0 0 0 0 0 0 0 0 0 0 0 0 0 0 0 0 0 0.25 0"/>
<feBlend mode="normal" in2="BackgroundImageFix" result="effect1_dropShadow_141_32"/>
<feBlend mode="normal" in="SourceGraphic" in2="effect1_dropShadow_141_32" result="shape"/>
</filter>
<filter id="filter16_d_141_32" x="263.89" y="29.1301" width="97.1476" height="43.9467" filterUnits="userSpaceOnUse" color-interpolation-filters="sRGB">
<feFlood flood-opacity="0" result="BackgroundImageFix"/>
<feColorMatrix in="SourceAlpha" type="matrix" values="0 0 0 0 0 0 0 0 0 0 0 0 0 0 0 0 0 0 127 0" result="hardAlpha"/>
<feOffset dy="4"/>
<feGaussianBlur stdDeviation="2"/>
<feComposite in2="hardAlpha" operator="out"/>
<feColorMatrix type="matrix" values="0 0 0 0 0 0 0 0 0 0 0 0 0 0 0 0 0 0 0.25 0"/>
<feBlend mode="normal" in2="BackgroundImageFix" result="effect1_dropShadow_141_32"/>
<feBlend mode="normal" in="SourceGraphic" in2="effect1_dropShadow_141_32" result="shape"/>
</filter>
<linearGradient id="paint0_linear_141_32" x1="490.728" y1="50.351" x2="494.601" y2="74.2355" gradientUnits="userSpaceOnUse">
<stop stop-color="#F4AF8A"/>
<stop offset="1" stop-color="#F9C0A1" stop-opacity="0"/>
</linearGradient>
<linearGradient id="paint1_linear_141_32" x1="326.268" y1="336.784" x2="335.961" y2="341.735" gradientUnits="userSpaceOnUse">
<stop stop-color="#F3AD8F"/>
<stop offset="1" stop-color="#FCC4AC" stop-opacity="0"/>
</linearGradient>
<linearGradient id="paint2_linear_141_32" x1="361.613" y1="466.447" x2="337.369" y2="454.047" gradientUnits="userSpaceOnUse">
<stop stop-color="#026CF0"/>
<stop offset="1" stop-color="#307FE2" stop-opacity="0"/>
</linearGradient>
<linearGradient id="paint3_linear_141_32" x1="305.041" y1="315.947" x2="324.136" y2="318.083" gradientUnits="userSpaceOnUse">
<stop stop-color="#FEA568"/>
<stop offset="1" stop-color="#F4B88E"/>
</linearGradient>
<linearGradient id="paint4_linear_141_32" x1="269.668" y1="430.38" x2="270.922" y2="419.993" gradientUnits="userSpaceOnUse">
<stop stop-color="#0154F7"/>
<stop offset="1" stop-color="#307FE2" stop-opacity="0"/>
</linearGradient>
<linearGradient id="paint5_linear_141_32" x1="400.317" y1="430.785" x2="391.67" y2="427.135" gradientUnits="userSpaceOnUse">
<stop stop-color="#0071FF"/>
<stop offset="1" stop-color="#307FE2" stop-opacity="0"/>
</linearGradient>
<linearGradient id="paint6_linear_141_32" x1="400.317" y1="430.786" x2="391.67" y2="427.135" gradientUnits="userSpaceOnUse">
<stop stop-color="#0071FF"/>
<stop offset="1" stop-color="#307FE2" stop-opacity="0"/>
</linearGradient>
</defs>
</svg>
