<svg width="22" height="22" viewBox="0 0 22 22" fill="none" xmlns="http://www.w3.org/2000/svg">
<path d="M10.9542 3.25418C13.475 3.25418 13.75 3.25418 14.7583 3.30002C15.675 3.34585 16.1792 3.48335 16.5 3.62085C16.9125 3.75835 17.2792 4.03335 17.6 4.30835C17.9208 4.62918 18.15 4.99585 18.2875 5.40835C18.425 5.72918 18.5625 6.23335 18.6083 7.15001C18.6542 8.15835 18.6542 8.43335 18.6542 10.9542C18.6542 13.475 18.6542 13.75 18.6083 14.7583C18.5625 15.675 18.425 16.1792 18.2875 16.5C17.9667 17.325 17.325 17.9667 16.5 18.2875C16.1792 18.425 15.675 18.5625 14.7583 18.6083C13.75 18.6542 13.475 18.6542 10.9542 18.6542C8.43332 18.6542 8.15832 18.6542 7.14999 18.6083C6.23332 18.5625 5.72915 18.425 5.40832 18.2875C4.99582 18.15 4.62915 17.875 4.30832 17.6C3.98749 17.2792 3.75832 16.9125 3.62082 16.5C3.48332 16.1792 3.34582 15.675 3.29999 14.7583C3.25415 13.75 3.25415 13.475 3.25415 10.9542C3.25415 8.43335 3.25415 8.15835 3.29999 7.15001C3.34582 6.23335 3.48332 5.72918 3.62082 5.40835C3.75832 4.99585 4.03332 4.62918 4.30832 4.30835C4.62915 3.98751 4.99582 3.75835 5.40832 3.62085C5.72915 3.48335 6.23332 3.34585 7.14999 3.30002C8.15832 3.25418 8.47915 3.25418 10.9542 3.25418ZM10.9542 1.55835C8.38749 1.55835 8.06665 1.55835 7.05832 1.60418C6.04999 1.65002 5.36249 1.78752 4.76665 2.06252C4.17082 2.29168 3.62082 2.65835 3.16249 3.11668C2.70415 3.57502 2.29165 4.17085 2.06249 4.76668C1.83332 5.36251 1.64999 6.05001 1.60415 7.05835C1.55832 8.06668 1.55832 8.38751 1.55832 10.9542C1.55832 13.5208 1.55832 13.8417 1.60415 14.85C1.64999 15.8583 1.78749 16.5458 2.06249 17.1417C2.29165 17.7375 2.65832 18.3333 3.16249 18.7917C3.62082 19.25 4.21665 19.6625 4.81249 19.8917C5.40832 20.1208 6.09582 20.3042 7.10415 20.35C8.11249 20.3958 8.43332 20.3958 11 20.3958C13.5667 20.3958 13.8875 20.3958 14.8958 20.35C15.9042 20.3042 16.5917 20.1667 17.1875 19.8917C18.4708 19.3875 19.4333 18.425 19.9375 17.1417C20.1666 16.5458 20.35 15.8583 20.3958 14.85C20.4417 13.8417 20.4416 13.5208 20.4416 10.9542C20.4416 8.38751 20.4417 8.06668 20.3958 7.05835C20.35 6.05001 20.2125 5.36251 19.9375 4.76668C19.7083 4.12501 19.3417 3.57502 18.8375 3.11668C18.3791 2.65835 17.7833 2.24585 17.1875 2.01668C16.5917 1.78752 15.9042 1.60418 14.8958 1.55835C13.8417 1.55835 13.5208 1.55835 10.9542 1.55835Z" fill="#2B2B39"/>
<path d="M10.9529 6.1416C8.29452 6.1416 6.14035 8.29577 6.14035 10.9541C6.14035 13.6124 8.29452 15.7666 10.9529 15.7666C13.6112 15.7666 15.7654 13.6124 15.7654 10.9541C15.8112 8.29577 13.657 6.1416 10.9529 6.1416ZM10.9529 14.1166C9.21119 14.1166 7.83619 12.6958 7.83619 10.9999C7.83619 9.25827 9.25702 7.88327 10.9529 7.88327C12.6945 7.88327 14.0695 9.3041 14.0695 10.9999C14.1154 12.6958 12.6945 14.1166 10.9529 14.1166Z" fill="#2B2B39"/>
<path d="M15.9971 7.10417C16.6299 7.10417 17.143 6.59116 17.143 5.95833C17.143 5.32551 16.6299 4.8125 15.9971 4.8125C15.3643 4.8125 14.8513 5.32551 14.8513 5.95833C14.8513 6.59116 15.3643 7.10417 15.9971 7.10417Z" fill="#2B2B39"/>
</svg>
