<svg width="66" height="66" viewBox="0 0 66 66" fill="none" xmlns="http://www.w3.org/2000/svg">
<rect width="66" height="66" rx="24" fill="url(#paint0_linear_5_1267)"/>
<path fill-rule="evenodd" clip-rule="evenodd" d="M23.9787 16C21.7813 16 20 17.7813 20 19.9787V46.0213C20 48.2187 21.7813 50 23.9787 50H42.7872C44.9846 50 46.766 48.2187 46.766 46.0213V19.9787C46.766 17.7813 44.9846 16 42.7872 16H23.9787ZM26.8723 20.3404C25.474 20.3404 24.3404 21.474 24.3404 22.8723C24.3404 24.2707 25.474 25.4043 26.8723 25.4043C28.2707 25.4043 29.4043 24.2707 29.4043 22.8723C29.4043 21.474 28.2707 20.3404 26.8723 20.3404ZM24.3404 33C24.3404 31.6017 25.474 30.4681 26.8723 30.4681C28.2707 30.4681 29.4043 31.6017 29.4043 33C29.4043 34.3983 28.2707 35.5319 26.8723 35.5319C25.474 35.5319 24.3404 34.3983 24.3404 33ZM26.8723 40.5957C25.474 40.5957 24.3404 41.7293 24.3404 43.1277C24.3404 44.526 25.474 45.6596 26.8723 45.6596C28.2707 45.6596 29.4043 44.526 29.4043 43.1277C29.4043 41.7293 28.2707 40.5957 26.8723 40.5957ZM34.1064 21.7872C33.5071 21.7872 33.0213 22.2731 33.0213 22.8723C33.0213 23.4716 33.5071 23.9574 34.1064 23.9574H42.7872C43.3865 23.9574 43.8723 23.4716 43.8723 22.8723C43.8723 22.2731 43.3865 21.7872 42.7872 21.7872H34.1064ZM33.0213 33C33.0213 32.4007 33.5071 31.9149 34.1064 31.9149H42.7872C43.3865 31.9149 43.8723 32.4007 43.8723 33C43.8723 33.5993 43.3865 34.0851 42.7872 34.0851H34.1064C33.5071 34.0851 33.0213 33.5993 33.0213 33ZM34.1064 42.0426C33.5071 42.0426 33.0213 42.5284 33.0213 43.1277C33.0213 43.7269 33.5071 44.2128 34.1064 44.2128H42.7872C43.3865 44.2128 43.8723 43.7269 43.8723 43.1277C43.8723 42.5284 43.3865 42.0426 42.7872 42.0426H34.1064Z" fill="white"/>
<defs>
<linearGradient id="paint0_linear_5_1267" x1="13.5" y1="2.86509e-07" x2="45" y2="66" gradientUnits="userSpaceOnUse">
<stop stop-color="#FF858A"/>
<stop offset="1" stop-color="#F04148"/>
</linearGradient>
</defs>
</svg>
