<svg width="66" height="66" viewBox="0 0 66 66" fill="none" xmlns="http://www.w3.org/2000/svg">
<rect width="66" height="66" rx="24" fill="url(#paint0_linear_5_1259)"/>
<path d="M50 29.9332V39.523C49.9992 40.2164 49.7234 40.8812 49.2331 41.3715C48.7428 41.8618 48.078 42.1376 47.3846 42.1383H46.5128V45.6255C46.5127 45.7912 46.4654 45.9535 46.3765 46.0933C46.2875 46.2331 46.1606 46.3447 46.0106 46.415C45.8605 46.4853 45.6936 46.5114 45.5292 46.4902C45.3649 46.4691 45.2099 46.4016 45.0826 46.2956L40.0944 42.1383H31.6923C30.9989 42.1376 30.3341 41.8618 29.8438 41.3715C29.3535 40.8812 29.0777 40.2164 29.0769 39.523V38.6512H37.7949C38.9505 38.6498 40.0585 38.1901 40.8756 37.3729C41.6928 36.5558 42.1525 35.4478 42.1538 34.2922V27.3178H47.3846C48.078 27.3186 48.7428 27.5944 49.2331 28.0847C49.7234 28.575 49.9992 29.2398 50 29.9332ZM37.7949 36.9076H25.9908L21.0205 42.705C20.9046 42.8401 20.7501 42.9364 20.5778 42.9811C20.4055 43.0258 20.2237 43.0166 20.0568 42.9549C19.8898 42.8932 19.7458 42.7819 19.6439 42.6359C19.5421 42.49 19.4874 42.3163 19.4872 42.1383V36.9076H18.6154C17.922 36.9068 17.2572 36.631 16.7669 36.1407C16.2766 35.6504 16.0008 34.9856 16 34.2922V22.0871C16.0008 21.3937 16.2766 20.7289 16.7669 20.2385C17.2572 19.7482 17.922 19.4724 18.6154 19.4717H37.7949C38.4883 19.4724 39.1531 19.7482 39.6434 20.2385C40.1337 20.7289 40.4095 21.3937 40.4103 22.0871V34.2922C40.4095 34.9856 40.1337 35.6504 39.6434 36.1407C39.1531 36.631 38.4883 36.9068 37.7949 36.9076ZM35.1795 29.9332C35.1795 29.702 35.0876 29.4803 34.9241 29.3168C34.7607 29.1533 34.5389 29.0614 34.3077 29.0614H22.1026C21.8713 29.0614 21.6496 29.1533 21.4861 29.3168C21.3226 29.4803 21.2308 29.702 21.2308 29.9332C21.2308 30.1644 21.3226 30.3862 21.4861 30.5497C21.6496 30.7132 21.8713 30.805 22.1026 30.805H34.3077C34.5389 30.805 34.7607 30.7132 34.9241 30.5497C35.0876 30.3862 35.1795 30.1644 35.1795 29.9332ZM35.1795 25.5742C35.1795 25.343 35.0876 25.1213 34.9241 24.9578C34.7607 24.7943 34.5389 24.7024 34.3077 24.7024H22.1026C21.8713 24.7024 21.6496 24.7943 21.4861 24.9578C21.3226 25.1213 21.2308 25.343 21.2308 25.5742C21.2308 25.8055 21.3226 26.0272 21.4861 26.1907C21.6496 26.3542 21.8713 26.446 22.1026 26.446H34.3077C34.5389 26.446 34.7607 26.3542 34.9241 26.1907C35.0876 26.0272 35.1795 25.8055 35.1795 25.5742Z" fill="white"/>
<defs>
<linearGradient id="paint0_linear_5_1259" x1="13.5" y1="2.86509e-07" x2="45" y2="66" gradientUnits="userSpaceOnUse">
<stop stop-color="#FFD085"/>
<stop offset="1" stop-color="#FFAF2E"/>
</linearGradient>
</defs>
</svg>
