<svg width="66" height="66" viewBox="0 0 66 66" fill="none" xmlns="http://www.w3.org/2000/svg">
<rect width="66" height="66" rx="24" fill="url(#paint0_linear_5_1300)"/>
<path fill-rule="evenodd" clip-rule="evenodd" d="M19.0338 16C17.3609 16 16 17.3611 16 19.034V21.3765H22.0678V19.034C22.0678 17.3611 20.7066 16 19.0338 16ZM45.0846 43.5742V19.9992C45.0846 17.7906 43.2942 16 41.0856 16H22.2348C22.986 16.7922 23.4503 17.8588 23.4503 19.034V47.0335C23.4503 48.6654 24.7017 50.0714 26.3315 50.1518C28.0735 50.2376 29.5181 48.8451 29.5181 47.1215V43.576H45.0848C45.0848 43.5753 45.0846 43.5749 45.0846 43.5742ZM29.1411 38.5048H39.8104V40.3482H29.1411V38.5048ZM29.1411 33.9731H39.8104V35.8165H29.1411V33.9731ZM29.1411 29.4413H39.8104V31.2847H29.1411V29.4413ZM29.1411 24.9098H39.8104V26.7532H29.1411V24.9098ZM29.1411 20.3781H39.8104V22.2215H29.1411V20.3781ZM30.9006 44.9585V47.1215C30.9006 48.2967 30.4363 49.3633 29.6851 50.1555H46.9662C48.6391 50.1555 50 48.7947 50 47.1215V44.9585H30.9006Z" fill="white"/>
<defs>
<linearGradient id="paint0_linear_5_1300" x1="13.5" y1="2.86509e-07" x2="45" y2="66" gradientUnits="userSpaceOnUse">
<stop stop-color="#FFD085"/>
<stop offset="1" stop-color="#FFAF2E"/>
</linearGradient>
</defs>
</svg>
