<svg width="66" height="66" viewBox="0 0 66 66" fill="none" xmlns="http://www.w3.org/2000/svg">
<rect width="66" height="66" rx="24" fill="url(#paint0_linear_5_1289)"/>
<path d="M24.2891 23.8617L26.4393 26.0119C26.5736 25.2503 26.9768 24.5336 27.5592 23.996C28.9926 22.6522 31.322 22.6074 32.7555 23.9513C32.8451 24.0408 32.9347 24.1304 33.0242 24.22C33.6066 24.892 33.965 25.7431 33.965 26.639C33.965 26.8182 33.965 26.9974 33.9202 27.1318C33.8306 27.9829 33.4722 28.7444 32.8451 29.3715C32.3075 29.9091 31.6356 30.2675 30.874 30.4018L33.0242 32.552L35.6224 29.9539C35.6672 29.9091 35.6672 29.9091 35.712 29.9091C35.712 29.9091 35.712 29.9091 35.7568 29.9091C35.8016 29.9091 35.8016 29.9091 35.8464 29.9091C35.8912 29.9091 35.936 29.9091 35.936 29.9091C36.0256 29.9539 36.1152 30.0435 36.1152 30.1779C36.1152 31.029 36.4735 31.7905 37.0559 32.3729C37.683 33 38.4893 33.3136 39.3404 33.3136C39.3404 33.3136 39.3404 33.3136 39.3852 33.3136C39.654 33.3136 39.878 33.2688 40.1468 33.224C40.7291 33.0896 41.2667 32.776 41.6698 32.3281C42.3866 31.5217 42.6553 30.4466 42.4314 29.4163C42.297 28.8788 42.0282 28.386 41.6698 27.9829C41.4459 27.7589 41.1771 27.5349 40.9083 27.4005C40.6395 27.2661 40.3708 27.1765 40.102 27.087C39.9676 27.0422 39.8332 27.0422 39.6988 26.9974C39.6092 26.9974 39.4748 26.9974 39.3852 26.9974C39.2509 26.9974 39.1613 26.9078 39.1165 26.8182C39.0717 26.7286 39.1165 26.5942 39.1613 26.5046L41.7594 23.9065L34.5025 16.6047C33.6962 15.7984 32.3523 15.7984 31.546 16.6047L24.2891 23.8617Z" fill="white"/>
<path d="M49.4177 31.5217L42.1608 24.2648L40.0106 26.415C40.7721 26.5494 41.4888 26.9525 42.0264 27.4901C43.3703 28.9236 43.415 31.2529 42.0712 32.6864C41.3544 33.4479 40.4137 33.8959 39.3834 33.8959C38.3531 33.9407 37.3676 33.5375 36.6509 32.776C36.1133 32.2385 35.755 31.5665 35.6206 30.805L33.4256 33L36.0237 35.5981C36.1133 35.6877 36.1133 35.8221 36.0685 35.9117C36.0237 36.0013 35.9342 36.0909 35.7998 36.0909C34.9486 36.0909 34.1871 36.4493 33.6048 37.0316C32.9776 37.6587 32.6641 38.4651 32.6641 39.361C32.6641 40.2121 33.0224 41.0184 33.6944 41.6456C33.8735 41.8248 34.0975 42.0039 34.3663 42.0935C35.531 42.7207 37.054 42.5415 38.0844 41.6008C38.7115 41.0184 39.0699 40.2121 39.0699 39.361C39.0699 39.2266 39.1595 39.137 39.249 39.0922C39.3386 39.0474 39.473 39.0922 39.5626 39.137L42.1608 41.7352L49.4177 34.4782C49.8208 34.0751 50.0448 33.5375 50.0448 33C50.0448 32.4176 49.8208 31.9249 49.4177 31.5217Z" fill="white"/>
<path d="M39.6074 39.9882C39.473 40.7497 39.0699 41.4664 38.4875 42.004C37.0541 43.3479 34.7247 43.3927 33.2912 42.0488C32.5297 41.332 32.0817 40.3913 32.0817 39.361C32.0817 38.5995 32.3057 37.838 32.7089 37.2108C32.8432 36.9869 33.0224 36.8077 33.2016 36.6285C33.7392 36.0909 34.4111 35.7326 35.1726 35.5982L33.0224 33.4032L30.4243 36.0014C30.3347 36.1357 30.2003 36.1357 30.1107 36.0909C30.0211 36.0461 29.9315 35.9566 29.9315 35.8222C29.9315 34.971 29.5732 34.2095 28.9908 33.6272C28.3637 33 27.5573 32.6865 26.6614 32.6865C26.5718 32.6865 26.4375 32.6865 26.3479 32.6865C25.5863 32.7761 24.9144 33.1344 24.3768 33.672C23.5257 34.5679 23.3465 35.9118 23.7497 37.0317C23.7497 37.0764 23.7945 37.1212 23.7945 37.166C23.7945 37.2108 23.8393 37.2556 23.8393 37.3004C23.9737 37.5692 24.1529 37.838 24.3768 38.062C24.9592 38.6891 25.7655 39.0475 26.6166 39.0475C26.751 39.0475 26.8406 39.1371 26.8854 39.2266C26.9302 39.3162 26.8854 39.4506 26.8406 39.5402L24.2425 42.1384L31.4994 49.3953C32.3057 50.2016 33.6496 50.2016 34.4559 49.3953L41.7128 42.1384L39.6074 39.9882Z" fill="white"/>
<path d="M16.6271 34.4782L23.8841 41.7352L26.0343 39.585C25.2727 39.4506 24.556 39.0474 24.0184 38.4651C22.6746 37.0316 22.6298 34.7022 23.9736 33.2688C24.6904 32.5072 25.6311 32.0593 26.6614 32.0593C27.6917 32.0593 28.6772 32.4176 29.3939 33.1792C29.9315 33.7167 30.2899 34.3887 30.4242 35.1502L32.5744 33L29.9763 30.4018C29.8867 30.3122 29.8867 30.1778 29.9315 30.0883C29.9763 29.9987 30.0659 29.9091 30.2003 29.9091C31.0514 29.9091 31.8129 29.5507 32.3953 28.9684C32.4848 28.8788 32.5296 28.7892 32.6192 28.7444C33.112 28.162 33.336 27.4453 33.336 26.6838C33.336 25.8327 32.9776 25.0263 32.3057 24.3992C31.0962 23.2793 29.1252 23.2793 27.9605 24.444C27.3333 25.0263 26.975 25.8327 26.975 26.6838C26.975 26.8182 26.8854 26.9078 26.7958 26.9526C26.7062 26.9973 26.5718 26.9526 26.4822 26.9078L23.8841 24.3096L16.6271 31.5217C16.224 31.9249 16 32.4176 16 33C16 33.5823 16.224 34.0751 16.6271 34.4782Z" fill="white"/>
<defs>
<linearGradient id="paint0_linear_5_1289" x1="13.5" y1="2.86509e-07" x2="45" y2="66" gradientUnits="userSpaceOnUse">
<stop stop-color="#5CA1FE"/>
<stop offset="1" stop-color="#217BF4"/>
</linearGradient>
</defs>
</svg>
