<svg width="66" height="66" viewBox="0 0 66 66" fill="none" xmlns="http://www.w3.org/2000/svg">
<rect width="66" height="66" rx="24" fill="url(#paint0_linear_5_1248)"/>
<path fill-rule="evenodd" clip-rule="evenodd" d="M27.6349 33.3045C31.1525 33.3045 34.0042 30.4528 34.0042 26.9352C34.0042 23.4176 31.1525 20.5659 27.6349 20.5659C24.1173 20.5659 21.2656 23.4176 21.2656 26.9352C21.2656 30.4528 24.1173 33.3045 27.6349 33.3045Z" fill="white"/>
<path fill-rule="evenodd" clip-rule="evenodd" d="M33.1641 32.5915C31.7321 33.9569 29.7827 34.7971 27.635 34.7971C25.4873 34.7971 23.5378 33.9569 22.1058 32.5915C21.8592 32.5304 21.6126 32.47 21.3731 32.4394C21.1336 32.4088 20.9019 32.4088 20.6859 32.4422C20.4705 32.4749 20.2715 32.5418 20.0391 32.6249C19.8067 32.7074 19.5416 32.8069 19.2098 33.0059C18.8786 33.2049 18.4799 33.5034 18.099 34.0017C17.7173 34.4985 17.3527 35.1958 17.0208 36.0253C16.6889 36.854 16.3905 37.8164 16.2249 38.7454C16.0593 39.6737 16.0259 40.57 16.0095 41.2495C15.9925 41.9297 15.9925 42.3945 16.0593 42.8423C16.1254 43.2901 16.2576 43.7209 16.5568 44.1523C16.8552 44.5837 17.3193 45.0152 17.8666 45.3464C18.4138 45.6783 19.0442 45.9108 19.9069 46.0266C20.769 46.1425 21.8635 46.1425 23.1903 46.1425H27.038H27.635H28.2319H32.0796C33.4064 46.1425 34.5009 46.1425 35.363 46.0266C36.2257 45.9108 36.8561 45.6783 37.4034 45.3464C37.9506 45.0152 38.4147 44.5837 38.7132 44.1523C39.0124 43.7209 39.1445 43.2901 39.2106 42.8423C39.2774 42.3945 39.2774 41.9297 39.2604 41.2495C39.244 40.57 39.2106 39.6737 39.045 38.7454C38.8795 37.8164 38.581 36.854 38.2491 36.0253C37.9172 35.1958 37.5526 34.4985 37.171 34.0017C36.79 33.5034 36.3913 33.2049 36.0602 33.0059C35.7283 32.8069 35.4632 32.7074 35.2308 32.6249C34.9984 32.5418 34.7994 32.4749 34.5841 32.4422C34.368 32.4088 34.1363 32.4088 33.8968 32.4394C33.6573 32.47 33.4107 32.5304 33.1641 32.5915Z" fill="white"/>
<path fill-rule="evenodd" clip-rule="evenodd" d="M34.4239 30.0739C35.5558 31.1074 37.063 31.7385 38.7166 31.7385C42.2333 31.7385 45.0843 28.8869 45.0843 25.3693C45.0843 21.8516 42.2333 19 38.7166 19C36.4583 19 34.4736 20.1763 33.3438 21.9497C34.6186 23.114 35.4187 24.7914 35.4187 26.6544C35.4187 27.9124 35.0535 29.0866 34.4239 30.0739Z" fill="white"/>
<path fill-rule="evenodd" clip-rule="evenodd" d="M43.8933 31.2609C42.5034 32.585 40.6271 33.4159 38.5547 33.4643L38.7836 33.7386C39.1654 34.2355 39.5301 34.9327 39.8621 35.7622C40.1942 36.591 40.4928 37.5534 40.6584 38.4824C40.8241 39.4106 40.8575 40.3069 40.8738 40.9864C40.8909 41.6666 40.8909 42.1315 40.8241 42.5793C40.758 43.0271 40.6257 43.4578 40.3264 43.8892C40.1039 44.2105 39.7896 44.5325 39.4178 44.8118H42.8084C44.1357 44.8118 45.2306 44.8118 46.093 44.696C46.9561 44.5801 47.5867 44.3477 48.1342 44.0158C48.6816 43.6845 49.1459 43.2531 49.4445 42.8217C49.7438 42.3902 49.876 41.9595 49.9421 41.5117C50.009 41.0639 50.009 40.5991 49.9919 39.9188C49.9755 39.2393 49.9421 38.343 49.7765 37.4148C49.6108 36.4858 49.3122 35.5234 48.9802 34.6946C48.6482 33.8652 48.2835 33.1679 47.9017 32.671C47.5206 32.1728 47.1218 31.8743 46.7904 31.6752C46.4584 31.4762 46.1932 31.3767 45.9608 31.2943C45.7283 31.2111 45.5292 31.1443 45.3138 31.1116C45.0976 31.0782 44.8659 31.0782 44.6263 31.1088C44.3867 31.1393 44.14 31.1997 43.8933 31.2609Z" fill="white"/>
<defs>
<linearGradient id="paint0_linear_5_1248" x1="13.5" y1="2.86509e-07" x2="45" y2="66" gradientUnits="userSpaceOnUse">
<stop stop-color="#5CA1FE"/>
<stop offset="1" stop-color="#217BF4"/>
</linearGradient>
</defs>
</svg>
